<svg xmlns="http://www.w3.org/2000/svg" width="900" height="322" fill="none" viewBox="0 0 900 322"><rect width="900" height="322" fill="url(#paint0_linear_3_2)"/><g filter="url(#filter0_d_3_2)"><path fill="#CCFFED" d="M156.18 196.58C158.585 215.82 177.27 223.775 197.62 223.775C221.67 223.775 238.135 213.23 238.135 192.88C238.135 180.485 230.18 170.31 213.9 166.795L191.885 161.985C184.67 160.32 183.56 157.175 183.56 154.215C183.56 149.96 186.335 145.15 196.14 145.15C206.315 145.15 212.79 150.515 213.715 157.915L237.025 153.29C233.88 137.195 218.71 125.91 196.88 125.91C173.57 125.91 159.14 138.675 159.14 156.435C159.14 169.755 168.575 179.19 185.225 182.705L204.095 186.59C212.05 188.255 214.27 191.585 214.27 194.915C214.27 200.095 208.905 204.165 199.84 204.165C190.22 204.165 182.08 201.02 180.785 191.585L156.18 196.58ZM310.457 125.91C298.247 125.91 288.627 129.795 281.412 137.01V87.8H256.992V221H281.412V180.115C281.412 157.545 290.477 148.295 304.352 148.295C315.637 148.295 323.037 156.99 323.037 169.94V221H347.457V164.76C347.457 141.82 332.657 125.91 310.457 125.91ZM458.307 173.085C457.382 144.965 436.107 125.91 411.502 125.91C385.047 125.91 363.772 145.89 363.772 174.935C363.772 203.98 385.047 223.775 411.132 223.775C431.297 223.775 447.762 214.525 455.902 195.285L434.072 190.66C427.412 201.945 418.347 202.87 411.132 202.87C399.847 202.87 390.412 194.73 388.007 181.41H458.307V173.085ZM411.502 147.185C421.307 147.185 430.187 152.365 433.332 164.205H388.747C391.707 152.735 402.252 147.185 411.502 147.185ZM501.28 221V87.8H476.86V221H501.28ZM587.39 196.58C582.58 199.17 576.29 201.02 572.035 201.02C563.895 201.02 558.53 196.21 558.53 185.11V148.665H588.685V128.685H558.53V100.75H534.11V128.685H514.315V148.665H534.11V186.96C534.11 212.305 548.54 223.775 570.37 223.775C578.14 223.775 584.8 222.11 594.42 216.93L587.39 196.58ZM692.809 173.085C691.884 144.965 670.609 125.91 646.004 125.91C619.549 125.91 598.274 145.89 598.274 174.935C598.274 203.98 619.549 223.775 645.634 223.775C665.799 223.775 682.264 214.525 690.404 195.285L668.574 190.66C661.914 201.945 652.849 202.87 645.634 202.87C634.349 202.87 624.914 194.73 622.509 181.41H692.809V173.085ZM646.004 147.185C655.809 147.185 664.689 152.365 667.834 164.205H623.249C626.209 152.735 636.754 147.185 646.004 147.185ZM768.897 127.39C753.912 127.39 743.182 134.79 735.782 145.52V128.685H711.362V221H735.782V191.215C735.782 165.5 746.142 151.625 768.712 151.625H774.077L775.372 128.13C773.152 127.39 771.302 127.39 768.897 127.39Z"/></g><defs><filter id="filter0_d_3_2" width="619.192" height="140.975" x="156.18" y="87.8" color-interpolation-filters="sRGB" filterUnits="userSpaceOnUse"><feFlood flood-opacity="0" result="BackgroundImageFix"/><feColorMatrix in="SourceAlpha" result="hardAlpha" type="matrix" values="0 0 0 0 0 0 0 0 0 0 0 0 0 0 0 0 0 0 127 0"/><feOffset dy="5"/><feComposite in2="hardAlpha" operator="out"/><feColorMatrix type="matrix" values="0 0 0 0 0 0 0 0 0 0 0 0 0 0 0 0 0 0 0.25 0"/><feBlend in2="BackgroundImageFix" mode="normal" result="effect1_dropShadow_3_2"/><feBlend in="SourceGraphic" in2="effect1_dropShadow_3_2" mode="normal" result="shape"/></filter><linearGradient id="paint0_linear_3_2" x1="450" x2="450" y1="0" y2="1105" gradientUnits="userSpaceOnUse"><stop stop-color="#2A3B4B"/><stop offset="1" stop-color="#2BFAAC"/><stop offset="1" stop-color="#2BFAAC"/></linearGradient></defs></svg>