<svg xmlns="http://www.w3.org/2000/svg" fill="none" viewBox="0 0 17390 7370"><path d="M12339 280c-50 12-124 37-140 48-8 6-25 8-79 8-379 0-610 260-508 574 35 105 75 411 68 510-5 67-3 67-47 24-21-20-43-40-50-43-10-6-10-8-11-100 0-274-100-441-300-505-140-45-1306 151-1438 242a932 932 0 00-146 146c-90 134-60 455 50 571 20 21 20 21 10 43l-14 32c-2 8-5 6-12-13a1100 1100 0 00-260-306 501 501 0 00-434-15c-10 5-14 3-37-20-20-20-230-165-380-263a450 450 0 00-441 6 955 955 0 00-274 355c-13 40-20 54-37 72a562 562 0 00-124 510c16 46 19 58 12 56-270-104-910-43-1180 113-20 11-36 18-37 15-4-10-58-94-77-120a1200 1200 0 00-335-274c-23-10-32-18-34-27-16-64-154-189-240-216-252-84-452-67-562 46-22 23-22 23-73 23a808 808 0 00-405 124 1327 1327 0 00-235 231c-25 36-25 36-57 3-50-50-83-70-165-100-72-25-72-25-96-90a445 445 0 00-847-3c-26 69-26 69-95 93-100 34-190 102-246 188-10 15-20 25-20 22-3-3-10-7-20-9-10-2-17-8-20-16a682 682 0 00-172-187c-102-68-325-70-425-4a714 714 0 00-173 188c-2 6-10 14-20 17-112 45-235 216-235 327 0 33 0 33-180 36-770 11-1375 370-1559 926a1206 1206 0 00-34 524 930 930 0 00 250 480c70 71 70 71 12 128-450 438 130 1166 970 1220 623 42 1325-156 1636-458 32-31 32-31 32 22 0 157 127 322 290 377 110 36 175 31 415-33l195-50c0 7 68 250 80 284 30 88 147 219 227 252 23 10-107 15-300 13-449-6-497 6-651 164-268 274-184 778 153 919 44 18 10811 10 10842-9a582 582 0 00 27-992 458 458 0 00-294-78c-296 2-1503 0-1506-2-5-5 15-13 80-35 153-50 228-182 287-349a670 670 0 00 13-406c-21-61-22-66-12-60l62 41c253 166 640 240 1073 205 506-40 1032-379 1145-735 9-30 9-30 52 113 94 306 92 303 185 397 196 198 367 185 1172-90a517 517 0 00 277-297c47-143 40-180-133-741-82-268-147-489-145-490 2-3 84-28 183-58 340-103 332-100 430-200 194-196 188-320-46-1030-54-161-253-320-402-320-89 0-266-70-333-133a396 396 0 01-110-337c16-61 10-207-8-263a424 424 0 00-248-246 8256 8256 0 00-774-126c-58 0-58 0-58-72 0-152-81-298-216-390-60-40-236-83-428-103-29-3-35-6-55-25a506 506 0 00-481-116c-82 27-104 46-276 232-87 94-173 170-298 264-57 43-57 43-96 17-145-99-295-130-420-89-43 15-43 15-45 4-2-6-9-62-16-124-41-360-258-516-603-437Z" fill="#000" fill-opacity=".6" fill-rule="evenodd" clip-rule="evenodd"/><path d="M12149 20c-50 12-124 37-140 48-8 6-25 8-79 8-379 0-610 260-508 574 35 105 75 411 68 510-5 67-3 67-47 24-21-20-43-40-50-43-10-6-10-8-11-100 0-274-100-441-300-505-140-45-1306 151-1438 242a932 932 0 00-146 146c-90 134-60 455 50 571 20 21 20 21 10 43l-14 32c-2 8-5 6-12-13a1100 1100 0 00-260-306 501 501 0 00-434-15c-10 5-14 3-37-20-20-20-230-165-380-263a450 450 0 00-441 6 955 955 0 00-274 355c-13 40-20 54-37 72a562 562 0 00-124 510c16 46 19 58 12 56-270-104-910-43-1180 113-20 11-36 18-37 15-4-10-58-94-77-120a1200 1200 0 00-335-274c-23-10-32-18-34-27-16-64-154-189-240-216-252-84-452-67-562 46-22 23-22 23-73 23a808 808 0 00-405 124 1327 1327 0 00-235 231c-25 36-25 36-57 3-50-50-83-70-165-100-72-25-72-25-96-90a445 445 0 00-847-3c-26 69-26 69-95 93-100 34-190 102-246 188-10 15-20 25-20 22-3-3-10-7-20-9-10-2-17-8-20-16a682 682 0 00-172-187c-102-68-325-70-425-4a714 714 0 00-173 188c-2 6-10 14-20 17-112 45-235 216-235 327 0 33 0 33-180 36-770 11-1375 370-1559 926a1206 1206 0 00-34 524 930 930 0 00 250 480c70 71 70 71 12 128-450 438 130 1166 970 1220 623 42 1325-156 1636-458 32-31 32-31 32 22 0 157 127 322 290 377 110 36 175 31 415-33l195-50c0 7 68 250 80 284 30 88 147 219 227 252 23 10-107 15-300 13-449-6-497 6-651 164-268 274-184 778 153 919 44 18 10811 10 10842-9a582 582 0 00 27-992 458 458 0 00-294-78c-296 2-1503 0-1506-2-5-5 15-13 80-35 153-50 228-182 287-349a670 670 0 00 13-406c-21-61-22-66-12-60l62 41c253 166 640 240 1073 205 506-40 1032-379 1145-735 9-30 9-30 52 113 94 306 92 303 185 397 196 198 367 185 1172-90a517 517 0 00 277-297c47-143 40-180-133-741-82-268-147-489-145-490 2-3 84-28 183-58 340-103 332-100 430-200 194-196 188-320-46-1030-54-161-253-320-402-320-89 0-266-70-333-133a396 396 0 01-110-337c16-61 10-207-8-263a424 424 0 00-248-246 8257 8257 0 00-774-126c-58 0-58 0-58-72 0-152-81-298-216-390-60-40-236-83-428-103-29-3-35-6-55-25a506 506 0 00-481-116c-82 27-104 46-276 232-87 94-173 170-298 264-57 43-57 43-96 17-145-99-295-130-420-89-43 15-43 15-45 4-2-6-9-62-16-124-41-360-258-516-603-437Z" fill="#363636" fill-rule="evenodd" clip-rule="evenodd"/><path d="M12715 1710v1144c0 76 148 76 148 0V2410s284-161 383-210c99-49 89-230 0-182l-383 207V1800c0-135-148-170-148-90Z" fill="#5093CF" fill-rule="evenodd" clip-rule="evenodd"/><path d="M8235 2084 7929 1840a53 53 0 01-15-64l52-108a53 53 0 01 76-21l352 223a53 53 0 01 14 76l-98 129a53 53 0 01-75 10Zm16-766 334 227a53 53 0 01 20 58l-31 114a53 53 0 01-76 32l-400-213a53 53 0 01-16-78l97-129a53 53 0 01 72-11Z" fill="#65B6FF"/><path d="M8997 1630a2303 2303 0 01-752 687 67 67 0 00-20 100l97 118a63 63 0 00 79 16 2039 2039 0 00 799-746 60 60 0 00-6-67l-85-112c-28-36-86-33-112 5Z" fill="url(#a)"/><path d="M8712 2488c0-3 1-6 4-8a2110 2110 0 00 386-344c2-2 5-3 8-3h240c40 0 75 17 108 53a170 170 0 01 48 123c0 3-37 2276 119 2481 61 80 137 50 212 20 116-47 230-93 288 275 58 376 28 387-156 452l-90 33c-442 111-786-70-944-485-132-346-203-2042-223-2597Z" fill="url(#b)" fill-rule="evenodd" clip-rule="evenodd"/><path d="m11150 1492-1210 224c-13 3-26 10-36 19-9 10-14 21-14 33l2 113c0 7 2 14 6 20 3 6 9 12 15 16 7 4 15 7 23 9h26l1193-222a70 70 0 00 35-17 50 50 0 00 16-30l14-115a40 40 0 00-4-22c-3-7-8-13-15-18a60 60 0 00-23-10h-28ZM10930 930l-1060 200a70 70 0 00-40 20 43 43 0 00-12 36l17 110c0 6 4 12 8 17 4 6 10 10 16 14 7 3 15 6 23 7h25l1058-195a72 72 0 00 41-22c10-10 14-23 12-36l-18-113c0-7-3-13-8-18a50 50 0 00-16-14c-7-3-15-6-23-7a80 80 0 00-25 1Z" fill="#65B6FF"/><path d="m10323 1150 73 574c1 8 3 16 7 22a60 60 0 00 14 18 50 50 0 00 18 10c7 2 13 3 20 2l147-23c13-3 24-10 32-23 7-12 10-27 8-42l-90-572c-3-15-10-29-22-38a47 47 0 00-37-11l-130 20c-12 2-23 10-30 21a62 62 0 00-10 42Z" fill="#65B6FF"/><path d="M11802 684c79 484 74 672-48 933-13 29 4 64 34 74 25 8 53 19 87 32 20 8 43 2 55-17 185-305 127-971 43-1190-8-20-30-30-50-27l-123 24c-35 7-44 44-28 76 10 20 20 50 30 95Zm555 844-202-1035a48 48 0 01 38-56l115-22a48 48 0 01 57 40c38 306 62 526 114 817 8 44 73 57 103 24 92-95 213-175 298-298 15-22 43-30 66-18l74 41a48 48 0 01 24 32 46 46 0 01-9 39c-156 200-259 257-471 438-7 5-14 10-22 10l-130 26a48 48 0 01-55-38ZM13990 562a2850 2850 0 01-572 514 50 50 0 00-21 35 50 50 0 00 12 40l62 70a50 50 0 00 65 8c262-186 403-320 605-555a50 50 0 00 11-40 50 50 0 00-22-34l-76-48a50 50 0 00-64 10Z" fill="#46E7A6"/><path d="M14639 754c-270-58-427-67-701-64a50 50 0 00-34 14l-76 74c-33 31-10 87 34 89a5140 5140 0 01 486 43 49 49 0 01 39 32 48 48 0 01-10 49c-293 333-503 474-925 627a50 50 0 00-30 32c-3 7-4 15-3 23 1 8 4 15 9 21l63 88a50 50 0 00 59 17c535-214 840-391 1143-908 15-25 0-121-54-137Z" fill="#46E7A6"/><path d="m14292 1669-467-488a50 50 0 01-3-65l65-80a50 50 0 01 73-6l479 450a50 50 0 01 7 63l-76 119a50 50 0 01-37 22 50 50 0 01-40-15ZM15720 1600l-670-110a20 20 0 01-10-6 30 30 0 01-8-11l-3-17c0-5 0-11 2-17l31-134c3-11 8-21 15-29 7-7 15-10 22-9l671 112c4 0 8 2 10 5 3 3 6 7 8 12l2 16-1 18-31 133a64 64 0 01-15 30c-7 6-15 10-22 8" fill="#46E7A6"/><path d="M1827 5245c-210 33-390 40-545 20A1310 1310 0 01 890 5152a764 764 0 01-236-175 455 455 0 01-100-183 100 100 0 01 15-88 110 110 0 01 72-49l670-106 12 2h4c5 0 10 2 16 5l4 2c41 6 80 20 118 42 41 22 85 40 132 55a380 380 0 00 166 7 290 290 0 00 134-54c39-32 55-70 48-112-6-37-23-67-52-91-26-24-78-43-156-56-78-16-200-26-369-31a1900 1900 0 01-436-68 809 809 0 01-334-198c-87-90-142-210-165-357a630 630 0 01 66-384 900 900 0 01 324-345 1467 1467 0 01 590-211c182-30 346-33 490-12a1330 1330 0 01 382 105 773 773 0 01 254 173 398 398 0 01 115 185c8 33 3 64-14 92a100 100 0 01-69 44l-604 96-30 5a10 10 0 01-4 0c-8-2-15-5-21-9l-6-1c-43-3-85-14-125-32a713 713 0 00-122-56 290 290 0 00-158-13c-53 8-94 27-124 57a120 120 0 00-30 105c5 33 20 62 46 87 26 24 80 42 160 55 81 12 207 20 377 20 221 0 402 30 544 90a722 722 0 01 320 228 674 674 0 01 133 300 638 638 0 01-78 433 895 895 0 01-372 338c-172 90-389 157-650 198Z" fill="#65B6FF"/><path d="M4385 5698a100 100 0 01-70-7 99 99 0 01-40-58l-673-2517c-7-25-5-48 7-68a90 90 0 01 56-44l542-145c23-6 45-2 68 11a80 80 0 01 43 54l267 1002c3 9 15 10 20 2a619 619 0 01 162-193 743 743 0 01 285-142c120-33 238-34 354-4a624 624 0 01 312 189 900 900 0 01 209 402l252 943c7 25 4 48-10 71a92 92 0 01-53 40L5570 5380c-24 7-48 5-70-6a99 99 0 01-40-59l-247-919c-22-83-60-142-112-177a224 224 0 00-189-22c-73 20-125 58-155 115-30 56-35 126-12 210L4990 5440c7 25 4 49-10 72a92 92 0 01-53 40l-543 145Z" fill="#46E7A6"/><path d="M7054 4426c-339-47-597-168-774-362-174-196-240-467-197-813l6-39 5-39a1128 1128 0 01 223-524 896 896 0 01 430-288c177-55 376-66 598-35 250 35 449 112 598 230a912 912 0 01 317 430c60 167 76 348 48 542l-15 109a96 96 0 01-42 65 110 110 0 01-82 20l-1245-174c-4 0-8 2-9 6 0 6 0 10-2 16-8 62-8 120 1 170 13 50 36 92 70 125 34 32 78 51 133 59a217 217 0 00 158-33c21-16 40-30 56-44 27-20 50-32 67-35a180 180 0 01 74 0l639 89c24 3 43 14 57 32a63 63 0 01 17 61c-10 47-40 100-94 162a780 780 0 01-221 163c-93 50-209 87-348 110a1559 1559 0 01-468-3ZM6980 3103c0 5 2 9 7 10l488 68c5 0 8-3 10-7 9-70 8-130-4-183a214 214 0 00-70-120 243 243 0 00-133-59c-54-8-102-1-144 20a210 210 0 00-100 96 503 503 0 00-54 175Zm4589 1762a1038 1038 0 01-397-167 602 602 0 01-220-317c-40-135-37-303 5-501l134-630a10 10 0 00-8-12l-262-56c-26-5-45-20-60-42a125 125 0 01-8-80l85-402c6-29 20-50 40-66a86 86 0 01 72-18l262 56c6 1 11-2 12-8L11360 1980c6-29 19-51 40-66a86 86 0 01 71-18l500 106c26 6 44 20 56 45a100 100 0 01 12 78l-137 642c0 5 3 10 8 11l425 90a80 80 0 01 55 46 100 100 0 01 12 77l-85 401c-6 30-20 53-44 70a80 80 0 01-68 15l-424-90a10 10 0 00-12 7l-120 563c-16 76-15 140 3 191 19 48 58 79 118 92l290 61c24 6 43 20 54 45a100 100 0 01 13 78l-92 433c-7 29-21 52-44 70a80 80 0 01-68 14l-355-76Z" fill="#65B6FF"/><path d="M13689 5084c-330 6-594-74-792-240-196-168-300-427-310-778l-1-40v-40a1170 1170 0 01 132-556 877 877 0 01 366-354 1270 1270 0 01 563-129c243-4 445 41 604 136a901 901 0 01 367 378 1180 1180 0 01 128 532l2 110c0 27-10 50-30 72a100 100 0 01-75 33l-1210 21c-5 0-8 4-8 8v16c1 64 10 120 27 170 19 47 47 85 85 113 37 26 82 38 135 37a194 194 0 00 145-58 690 690 0 00 47-52 176 176 0 01 60-45c15-8 38-12 70-12l620-11a80 80 0 01 60 22 64 64 0 01 25 60 393 393 0 01-64 175 767 767 0 01-187 197 1020 1020 0 01-313 164 1440 1440 0 01-446 70Zm-272-1306c0 5 3 8 8 8l474-8c5 0 8-4 8-8a526 526 0 00-30-182 226 226 0 00-220-147c-54 2-98 16-135 43a214 214 0 00-80 112c-19 50-27 111-25 182Z" fill="#46E7A6"/><path d="M15624 4987c-30 9-60 7-88-5a130 130 0 01-53-70l-590-1932c-10-30-7-58 6-83a110 110 0 01 68-57l599-183c30-10 58-6 84 10a98 98 0 01 56 64l40 130a10 10 0 00 19 3 909 909 0 01 540-433l186-57c30-10 60-6 88 10a98 98 0 01 56 63l163 533c10 30 6 60-10 88a112 112 0 01-68 57l-462 142c-99 30-167 80-203 148-37 65-40 148-10 247l301 986c10 30 7 60-9 89a105 105 0 01-65 52l-648 198Z" fill="#65B6FF"/><path d="M8277 5000c-33 3-64 0-93-12-29-12-52-30-71-58a220 220 0 01-36-105l-25-239c0-6 1-11 5-16 5-5 10-8 17-8l145-16c7 0 13 1 18 5s8 9 9 15l24 232c5 44 28 64 70 60 20-2 36-10 46-22a70 70 0 00 12-51l-24-232c0-7 0-12 5-16 4-6 10-8 16-10l146-14c6-1 12 0 17 5 6 3 9 8 10 14l41 402c1 6 0 12-5 17-5 4-10 7-16 7l-135 14c-6 1-13 0-18-4s-7-10-8-15c-1-10-15-13-22-6-10 11-24 20-39 29-25 12-55 20-89 24Zm-1504 319c-33 8-64 10-94 3s-57-23-80-46a220 220 0 01-51-99l-62-231a20 20 0 01 2-17c4-6 9-10 15-11l142-38a20 20 0 01 17 2c6 3 10 7 12 13l60 226c12 43 38 59 80 48 19-6 32-15 40-30 9-13 10-30 4-51l-60-226a20 20 0 01 2-17c4-5 9-10 15-10l142-39c6-1 12 0 18 3 5 2 10 7 10 13l105 390c2 5 0 11-3 17a20 20 0 01-14 10l-130 35c-7 2-14 2-20-1-5-3-8-8-10-14-2-10-17-10-22-3a160 160 0 01-34 35 262 262 0 01-84 38Zm644 106c-10 2-18 0-24-3a50 50 0 01-14-17L7150 4950a50 50 0 01-3-9c0-6 0-12 3-17 4-6 10-10 16-10l130-24a30 30 0 01 23 5c6 3 10 7 12 11v3l89 180c9 19 35 14 38-6l24-200c0-6 3-12 7-18 5-7 12-10 22-12l80-14c10-2 18 0 24 4 7 4 10 9 13 13l92 181a20 20 0 00 37-7l22-201c0-5 3-10 7-16a30 30 0 01 20-13l130-23c7 0 13 0 18 5 6 4 9 9 10 15v10l-60 505-8 20c-4 6-11 10-21 11l-113 20c-10 2-18 0-24-3-6-5-10-10-15-17l-96-179a20 20 0 00-38 7l-30 201a30 30 0 01-8 20c-3 7-10 10-20 12l-113 20Z" fill="#79BAF4"/><path d="M3591 3865 3473 3420a70 70 0 00-128-17L3020 3967a70 70 0 00 79 103l444-120a70 70 0 00 50-85Z" fill="#46E7A6"/><path d="m3747 4444-120-444a70 70 0 00-127-17l-326 564a70 70 0 00 79 102l444-119a70 70 0 00 50-86Z" fill="#65B6FF"/><path d="m3902 5024-120-444a70 70 0 00-127-17L3330 5126a70 70 0 00 78 103l445-120a70 70 0 00 50-85Z" fill="#5093CF"/><path d="M9962 2644a462 462 0 01 532-123c140 72 170 208 78 334a462 462 0 01-532 123c-140-72-170-208-78-334Z" fill="#5093CF" fill-rule="evenodd" clip-rule="evenodd"/><path d="M10146 2292c-23-85-88-141-144-126-57 16-84 97-60 182 23 85 88 142 144 126 56-16 84-97 60-182Zm236-55c-24-85-86-141-140-126s-79 96-56 180c24 86 86 143 140 128 54-16 79-97 56-182Zm275 76c-24-85-88-141-145-126-56 16-83 97-60 182 23 85 88 142 144 126 57-16 84-97 60-182ZM9932 2480c-23-85-88-141-144-126-57 16-84 98-60 183 23 85 87 140 144 125 56-16 83-97 60-182Z" fill="#5093CF"/><path d="M9995 3818c170-67 423 20 516 178 80 135 34 267-112 325-170 67-424-20-516-178-80-135-34-267 112-325Z" fill="#5093CF" fill-rule="evenodd" clip-rule="evenodd"/><path d="M10337 3617c25-84 0-166-56-183-56-16-122 39-147 123-26 84 0 166 56 183 56 16 122-38 147-123Zm228 79c26-85 3-166-50-181-55-16-119 40-144 124s-3 165 51 180c54 17 118-39 143-123Zm194 210c25-85 0-167-56-183-56-17-123 38-148 122-25 85 0 166 56 183 56 17 122-38 148-123Zm-703-243c25-84 0-166-56-183-57-16-123 39-148 123s0 166 56 183c56 17 122-38 148-123ZM5143 3170a40 40 0 01-32-47l20-110a40 40 0 00-30-47 809 809 0 01-250-105 466 466 0 01-217-353 620 620 0 01 70-360 420 420 0 01 327-222 813 813 0 01 259 4 40 40 0 00 47-33l12-66a40 40 0 01 47-32l162 33a40 40 0 01 30 47l-12 70a40 40 0 00 30 46 790 790 0 01 244 100 444 444 0 01 226 337 632 632 0 01-65 362c-30 56-70 106-123 149a480 480 0 01-203 90 783 783 0 01-267-2 40 40 0 00-47 33l-20 107a40 40 0 01-47 32l-161-33Zm-5-425c22 7 44-8 48-30l96-518a40 40 0 00-33-46c-76-10-138-6-184 8a222 222 0 00-122 86 361 361 0 00-52 134c-10 56-10 109 2 158s40 92 84 130c39 31 92 57 160 78Zm288 20c-4 23 10 44 33 46 72 9 130 6 177-10a220 220 0 00 125-86c29-40 48-89 58-145 10-50 9-100-2-146-10-47-37-90-81-127a456 456 0 00-166-80 40 40 0 00-49 31l-95 518Z" fill="#5093CF"/><path d="M2428 2153a50 50 0 01 94 0l43 120a50 50 0 00 30 30l122 42a50 50 0 01 0 93l-122 42a50 50 0 00-30 30l-43 120a50 50 0 01-94 0l-43-120a50 50 0 00-30-30l-122-42a50 50 0 01 0-93l122-42a50 50 0 00 30-30l43-120Zm594 559c10-30 52-30 63 0l28 80c4 10 11 16 20 20l81 28c30 10 30 52 0 62l-80 28c-10 4-17 10-20 20l-30 80c-10 30-52 30-62 0l-29-80c-3-10-10-16-20-20l-80-28c-30-10-30-52 0-62l80-28c10-4 17-10 20-20l29-80Zm588-884a73 73 0 01 136 0l78 217c8 20 24 36 44 43l220 77a71 71 0 01 0 135l-220 77c-20 7-36 23-44 43l-78 218a73 73 0 01-136 0l-78-218a70 70 0 00-44-43l-220-77a71 71 0 01 0-135l220-77c20-7 37-23 44-43l78-217Z" fill="#79BAF4"/><path d="M10985 5149c27 15 40 32 38 50a50 50 0 01-9 23l-4 6-6 11-228 394a160 160 0 01-12 20 40 40 0 01-14 12c-6 3-13 5-22 4-8-1-20-6-37-15-27-15-40-31-37-49 0-10 27-58 77-142 6-9 6-20 2-29l-110-240a80 80 0 01-11-36c1-15 16-30 43-42 18-8 30-10 40-10a40 40 0 01 21 8c6 4 10 9 11 13l32 71c10 20 20 40 28 60 11 23 48 24 60 2a8799 8799 0 01 72-116 30 30 0 01 27-10c12 2 25 7 40 15Zm75 67 3-24 9-19c8-12 27-16 58-13 23 3 38 9 47 18 7 7 10 18 10 32l-2 20-26 250-4 26c-1 5-4 10-9 17-7 12-26 16-57 13-30-3-47-11-53-25a79 79 0 01-2-44l26-251Zm131-120c-4 6-10 10-20 12-10 2-21 2-37 0-15 0-26-3-35-7-9-4-15-10-18-17-2-8-4-14-4-20a292 292 0 01 5-49 70 70 0 01 8-18c8-12 28-16 58-13 30 3 48 11 52 25 3 7 5 14 5 20l-1 24-4 25a50 50 0 01-9 18Zm8 555 43-417 4-25c1-5 4-10 8-17 8-12 25-17 50-14 25 3 42 8 50 15 9 8 28 15 39 10 17-8 38-10 63-8 39 4 74 26 105 66a186 186 0 01-27 256c-39 33-77 48-116 44l-10-2c-28-4-78 16-80 45l-7 60-4 23c-1 6-4 11-8 18-4 6-10 10-20 13-9 2-20 2-35 0-15-1-27-4-36-8-8-4-13-9-17-16-2-7-4-13-4-19 0-5 0-13 2-24Zm177-322a64 64 0 00-21 40c-2 16 2 30 12 45a60 60 0 00 87 10 59 59 0 00 23-41 60 60 0 00-13-44 58 58 0 00-43-24c-18-2-33 3-45 14Zm637 69c-3 29-12 50-29 63a68 68 0 01-50 15l-140-14c-16-2-30 11-20 24l10 8a100 100 0 00 47 19c27 3 50 2 66-2l8-2c12-4 22-5 30-5 14 2 26 14 35 37a80 80 0 01 6 34c-5 42-58 58-160 47-34-4-65-13-92-28a163 163 0 01-58-55 207 207 0 01-32-134c7-60 31-106 73-138a210 210 0 01 152-39c66 7 113 36 138 86 14 26 20 54 16 84Zm-153 5c18 2 28-5 30-20 1-11-2-20-10-28-8-8-20-12-35-14-22-2-44 12-59 27-11 12-3 27 14 28l60 7Zm563 38c-3 29-13 50-29 63a68 68 0 01-50 15l-140-14c-16-2-30 12-20 24l10 9c15 10 30 16 46 18 28 3 50 2 66-2l9-2c12-4 21-5 29-5 15 2 27 14 36 37a80 80 0 01 6 34c-5 42-58 58-160 47-34-4-65-13-92-28a163 163 0 01-58-55 207 207 0 01-32-134c7-60 31-106 73-138a210 210 0 01 152-39c66 7 112 36 138 86 14 26 20 54 16 84Zm-153 5c18 2 28-5 30-20a40 40 0 00-10-28c-8-8-20-12-35-14-22-2-44 12-59 27-11 12-3 27 14 28l60 7Z" fill="#5093CF"/><path d="M14146 2590c-9 0-15-2-20-5l-255-168c-11-7-20-17-24-27a72 72 0 01-7-30 68 68 0 01 31-57l256-168a30 30 0 01 19-5c15 0 30 7 45 21a69 69 0 01 23 53c0 20-6 33-18 40L14020 2360l177 116c12 7 18 20 18 40s-8 38-23 53c-15 14-30 21-45 21Zm638 0c-15 0-30-7-45-21a69 69 0 01-23-53c0-20 6-33 18-40L14910 2360l-177-116c-12-7-18-20-18-40s8-38 23-53c15-14 30-21 45-21 9 0 15 2 20 5l255 168c11 7 20 17 24 27 5 11 7 21 7 30a68 68 0 01-31 57l-256 168a30 30 0 01-19 5Zm-475 70a70 70 0 01-50-19 56 56 0 01-19-40c0-6 2-13 6-20l319-523c10-19 27-28 52-28 17 0 34 6 50 17a48 48 0 01 18 62l-320 523c-4 8-12 15-22 20a80 80 0 01-34 8Z" fill="#79BAF4"/><path d="M3620 6802c-39 0-74-9-104-25a186 186 0 01-96-172c0-40 8-75 25-106 17-30 40-55 70-73a200 200 0 01 105-27c39 0 73 9 102 25a191 191 0 01 92 185c0 12-10 20-20 20h-260a33 33 0 01 0-67h112c28 0 53-27 32-47l-4-4a76 76 0 00-53-20 84 84 0 00-76 46c-8 15-12 35-12 58v23c0 18 3 33 10 47a79 79 0 00 30 32c13 8 29 12 46 12a90 90 0 00 42-10l7-5c14-11 30-22 48-22h20c34 0 58 33 37 59a185 185 0 01-152 70Zm531 0a240 240 0 01-94-17 158 158 0 01-72-63c-14-26 10-52 40-52h33c15 0 28 12 37 24a60 60 0 00 22 16c10 4 20 5 32 5a80 80 0 00 30-4c9-4 15-8 19-14a30 30 0 00 6-17c0-10-3-17-10-22-5-6-13-10-24-13l-40-10-56-13c-18-6-34-13-48-20a130 130 0 01-34-32 105 105 0 01 7-110c13-19 31-33 55-44 24-11 53-17 87-17 49 0 87 10 114 32 12 10 22 20 30 33 16 25-8 53-39 53h-18c-18 0-34-14-50-23-10-5-22-8-37-8a70 70 0 00-38 8c-9 6-13 13-13 23 0 6 3 11 9 16 6 5 14 9 25 13 12 3 25 7 42 10a740 740 0 01 80 22c23 7 40 18 53 33 13 14 20 35 19 63a110 110 0 01-20 66c-13 20-32 34-57 46-25 10-55 16-90 16Zm504 0a240 240 0 01-94-17 158 158 0 01-71-63c-14-26 10-52 39-52h33c15 0 28 12 37 24a60 60 0 00 22 16c10 4 20 5 32 5a80 80 0 00 30-4c9-4 15-8 19-14a30 30 0 00 6-17c0-10-3-17-10-22-5-6-13-10-24-13l-40-10a1090 1090 0 01-56-13c-18-6-34-13-48-20-14-9-25-20-33-32a105 105 0 01 7-110 120 120 0 01 54-44c24-11 53-17 87-17 49 0 87 10 114 32 12 10 22 20 30 33 16 25-8 53-38 53h-20c-17 0-33-14-49-23-10-5-22-8-37-8a70 70 0 00-38 8c-8 6-13 13-13 23 0 6 3 11 9 16 6 5 14 9 26 13l40 10a650 650 0 01 81 22c23 7 40 18 54 33 12 14 18 35 18 63a110 110 0 01-20 66c-13 20-32 34-57 46-25 10-55 16-90 16Zm534 0c-40 0-75-9-105-25a186 186 0 01-96-172c0-40 8-75 25-106 17-30 40-55 70-73a200 200 0 01 105-27c39 0 72 9 101 25a191 191 0 01 92 185 20 20 0 01-20 20h-258a33 33 0 01 0-67h110c29 0 53-27 33-47l-4-4a76 76 0 00-53-20 84 84 0 00-76 46c-8 15-12 35-12 58v23c0 18 3 33 10 47a79 79 0 00 30 32c13 8 28 12 46 12 17 0 30-4 41-10l7-5c14-11 30-22 48-22h21c34 0 57 33 37 59l-7 7a195 195 0 01-145 64Zm420-10a50 50 0 01-50-50v-284a50 50 0 01 50-50h36c8 0 14 6 16 14 2 16 25 20 37 10a140 140 0 01 97-33c32 0 60 7 81 20 22 15 39 34 50 60 12 26 17 57 17 94v170a50 50 0 01-50 50H5880a50 50 0 01-50-50v-160c0-27-6-49-19-64-11-16-30-24-56-24a80 80 0 00-42 12 75 75 0 00-30 30c-6 15-10 31-10 50v155a50 50 0 01-50 50H5610Zm702 0c-28 0-53-4-74-13a98 98 0 01-50-44c-12-20-17-48-17-83v-116c0-18-15-32-33-32a33 33 0 01-33-33v-28c0-20 15-35 35-35 17 0 32-13 34-30l4-33a50 50 0 01 50-45h7a50 50 0 01 50 50v10a50 50 0 00 50 48h1a48 48 0 11 0 96h-2a50 50 0 00-49 49v100c0 16 3 27 10 33 7 7 20 10 36 10h4a48 48 0 11 0 96h-23Zm303 0a50 50 0 01-50-50v-284a50 50 0 01 50-50h14a50 50 0 01 50 50v284a50 50 0 01-50 50h-14Zm7-428a70 70 0 01-50-17 57 57 0 01-19-45c0-18 7-33 20-44a70 70 0 01 50-18c20 0 37 6 50 18 13 11 20 26 20 44a60 60 0 01-20 45 72 72 0 01-50 17Zm381 438a190 190 0 01-80-16c-20-10-36-24-46-40a120 120 0 01 2-120 130 130 0 01 54-42c25-10 55-16 93-16h50c23 0 45-20 36-42-4-11-11-20-20-25a80 80 0 00-40-9 100 100 0 00-45 10l-1 1c-20 13-40 33-63 33h-15c-29 0-53-26-40-52l12-20c16-20 37-36 63-47 26-12 56-18 90-18 36 0 68 6 95 19 27 11 48 28 62 51a150 150 0 01 23 86v187a50 50 0 01-50 50h-31c-8 0-15-5-17-13l-3-10c-3-12-20-14-28-6-7 8-16 15-26 21a167 167 0 01-74 18Zm29-87a72 72 0 00 56-23 125 125 0 00 26-56h-75a80 80 0 00-32 5c-8 3-14 7-18 13-4 7-6 14-6 22 0 8 2 16 6 22 5 5 10 10 18 13a80 80 0 00 25 4Zm438 77a50 50 0 01-50-50v-448a50 50 0 01 50-50h15a50 50 0 01 50 50v448a50 50 0 01-50 50h-15Zm306 0a50 50 0 01-50-50v-448a50 50 0 01 50-50h15a50 50 0 01 50 50v448a50 50 0 01-50 50h-15Zm384 168a50 50 0 01-46-70l55-126a10 10 0 00-10-14 10 10 0 01-10-6l-120-265a50 50 0 01 46-70h15a50 50 0 01 45 29l43 95a50 50 0 00 93-3l33-90a50 50 0 01 47-32h13a50 50 0 01 46 70L8216 6930a50 50 0 01-46 30h-10Zm935-158c-20 0-36-3-51-7a143 143 0 01-45-24c-11-9-30-5-34 9-2 7-8 12-16 12h-39a50 50 0 01-50-50v-448a50 50 0 01 50-50h15a50 50 0 01 50 50v100c0 20 30 32 47 22a170 170 0 01 166 10 204 204 0 01 91 175c0 38-8 73-25 103a173 173 0 01-160 98Zm-28-100a92 92 0 00 83-48 110 110 0 00 12-53c0-20-4-37-12-52a93 93 0 00-83-50 94 94 0 00-84 50c-9 14-13 32-13 52s4 37 13 52a91 91 0 00 84 49Zm537 100c-33 0-60-7-82-20a128 128 0 01-50-58 238 238 0 01-17-95v-170a50 50 0 01 50-50h14a50 50 0 01 50 50v159c0 28 6 50 18 65 11 15 30 23 56 23 16 0 30-4 42-11a70 70 0 00 30-31c6-14 10-30 10-50v-156a50 50 0 01 50-50h15a50 50 0 01 50 50v284a50 50 0 01-50 50h-37c-8 0-14-5-16-13-2-15-25-20-36-10a150 150 0 01-97 33Zm477-10a50 50 0 01-50-50v-448a50 50 0 01 50-50h14a50 50 0 01 50 50v448a50 50 0 01-50 50h-14Zm305 0a50 50 0 01-50-50v-448a50 50 0 01 50-50h15a50 50 0 01 50 50v448a50 50 0 01-50 50h-15Zm445 10c-40 0-74-9-104-25a186 186 0 01-96-172c0-40 8-75 25-106 17-30 40-55 70-73a200 200 0 01 105-27c38 0 72 9 101 25a191 191 0 01 93 185c0 12-10 20-21 20h-259a33 33 0 01 0-67h111c29 0 53-27 33-47a80 80 0 00-58-24 85 85 0 00-76 46 130 130 0 00-11 58v23c0 18 3 33 10 47a79 79 0 00 30 32c13 8 28 12 46 12a77 77 0 00 48-15c14-11 30-22 48-22h21c34 0 57 33 37 59l-7 7a194 194 0 01-146 64Zm548-10c-28 0-53-4-75-13a110 110 0 01-50-44c-10-20-17-48-17-83v-116c0-18-14-32-33-32a33 33 0 01-32-33v-28c0-20 15-35 34-35 18 0 33-13 35-30l3-33a50 50 0 01 50-45h8a50 50 0 01 50 50v10a50 50 0 00 50 48 48 48 0 01 0 96 50 50 0 00-50 49v100c0 16 3 27 10 33 7 7 19 10 36 10h4a48 48 0 11 0 96h-23Zm301 168a50 50 0 01-50-50v-452a50 50 0 01 50-50h38c8 0 15 6 17 14 4 15 24 20 35 10l3-3c10-10 23-16 38-21a175 175 0 01 213 90c17 30 25 65 25 103 0 39-9 73-25 104-17 30-39 53-66 70a170 170 0 01-93 27c-27 0-50-5-70-15s-50 3-50 24v99a50 50 0 01-50 50h-15Zm156-258c19 0 35-4 50-12a90 90 0 00 34-36 110 110 0 00 12-53c0-20-4-37-12-52a90 90 0 00-35-36 80 80 0 00-49-14 94 94 0 00-84 50c-8 15-12 32-12 51 0 20 4 38 12 53a90 90 0 00 84 49Zm442 90a50 50 0 01-50-50v-284a50 50 0 01 50-50h35c10 0 18 8 20 17 2 19 28 25 42 13l1-1a156 156 0 01 57-30c27-9 50 15 50 42v33c0 21-17 38-39 38a130 130 0 00-41 6 80 80 0 00-33 16c-8 7-15 18-20 30-5 14-7 30-7 49v121a50 50 0 01-50 50h-15Zm545 10a195 195 0 01-170-97 200 200 0 01-27-104c0-40 9-74 26-104a190 190 0 01 170-98 190 190 0 01 171 98c18 30 27 64 27 103 0 40-9 74-26 105a191 191 0 01-171 97Zm0-100c15 0 28-3 40-10 12-9 22-20 30-35 6-15 10-34 10-57 0-22-4-40-10-56a80 80 0 00-30-34 73 73 0 00-40-12c-15 0-29 4-40 12a80 80 0 00-30 34c-6 15-10 34-10 56 0 23 4 42 10 57a80 80 0 00 30 34c11 8 25 11 40 11Zm561 100a195 195 0 01-170-97c-18-30-26-65-26-104 0-40 8-74 26-104a190 190 0 01 170-98 190 190 0 01 171 98c18 30 26 64 26 103 0 40-8 74-26 105a191 191 0 01-170 97Zm0-100c15 0 29-3 40-10 13-9 23-20 30-35 7-15 10-34 10-57 0-22-3-40-10-56a80 80 0 00-29-34 73 73 0 00-40-12 70 70 0 00-41 12 80 80 0 00-29 34c-7 15-10 34-10 56 0 23 3 42 10 57a80 80 0 00 29 34 70 70 0 00 40 11Zm443 90a50 50 0 01-50-50v-361c0-34 6-60 18-80a100 100 0 01 48-43c22-10 46-14 74-14 27 0 49 21 49 48v18a30 30 0 01-30 30c-17 0-28 4-35 10-6 6-10 16-10 30v362a50 50 0 01-50 50h-14Zm-53-288a48 48 0 01 0-96h150a48 48 0 01 0 96h-150Z" fill="#5093CF"/><path d="M12339 280c-50 12-124 37-140 48-8 6-25 8-79 8-379 0-610 260-508 574 35 105 75 411 68 510-5 67-3 67-47 24-21-20-43-40-50-43-10-6-10-8-11-100 0-274-100-441-300-505-140-45-1306 151-1438 242a932 932 0 00-146 146c-90 134-60 455 50 571 20 21 20 21 10 43l-14 32c-2 8-5 6-12-13a1100 1100 0 00-260-306 501 501 0 00-434-15c-10 5-14 3-37-20-20-20-230-165-380-263a450 450 0 00-441 6 955 955 0 00-274 355c-13 40-20 54-37 72a562 562 0 00-124 510c16 46 19 58 12 56-270-104-910-43-1180 113-20 11-36 18-37 15-4-10-58-94-77-120a1200 1200 0 00-335-274c-23-10-32-18-34-27-16-64-154-189-240-216-252-84-452-67-562 46-22 23-22 23-73 23a808 808 0 00-405 124 1327 1327 0 00-235 231c-25 36-25 36-57 3-50-50-83-70-165-100-72-25-72-25-96-90a445 445 0 00-847-3c-26 69-26 69-95 93-100 34-190 102-246 188-10 15-20 25-20 22-3-3-10-7-20-9-10-2-17-8-20-16a682 682 0 00-172-187c-102-68-325-70-425-4a714 714 0 00-173 188c-2 6-10 14-20 17-112 45-235 216-235 327 0 33 0 33-180 36-770 11-1375 370-1559 926a1206 1206 0 00-34 524 930 930 0 00 250 480c70 71 70 71 12 128-450 438 130 1166 970 1220 623 42 1325-156 1636-458 32-31 32-31 32 22 0 157 127 322 290 377 110 36 175 31 415-33l195-50c0 7 68 250 80 284 30 88 147 219 227 252 23 10-107 15-300 13-449-6-497 6-651 164-268 274-184 778 153 919 44 18 10811 10 10842-9a582 582 0 00 27-992 458 458 0 00-294-78c-296 2-1503 0-1506-2-5-5 15-13 80-35 153-50 228-182 287-349a670 670 0 00 13-406c-21-61-22-66-12-60l62 41c253 166 640 240 1073 205 506-40 1032-379 1145-735 9-30 9-30 52 113 94 306 92 303 185 397 196 198 367 185 1172-90a517 517 0 00 277-297c47-143 40-180-133-741-82-268-147-489-145-490 2-3 84-28 183-58 340-103 332-100 430-200 194-196 188-320-46-1030-54-161-253-320-402-320-89 0-266-70-333-133a396 396 0 01-110-337c16-61 10-207-8-263a424 424 0 00-248-246 8256 8256 0 00-774-126c-58 0-58 0-58-72 0-152-81-298-216-390-60-40-236-83-428-103-29-3-35-6-55-25a506 506 0 00-481-116c-82 27-104 46-276 232-87 94-173 170-298 264-57 43-57 43-96 17-145-99-295-130-420-89-43 15-43 15-45 4-2-6-9-62-16-124-41-360-258-516-603-437Z" fill="#000" fill-opacity=".3" fill-rule="evenodd" clip-rule="evenodd"/><path d="M12149 20c-50 12-124 37-140 48-8 6-25 8-79 8-379 0-610 260-508 574 35 105 75 411 68 510-5 67-3 67-47 24-21-20-43-40-50-43-10-6-10-8-11-100 0-274-100-441-300-505-140-45-1306 151-1438 242a932 932 0 00-146 146c-90 134-60 455 50 571 20 21 20 21 10 43l-14 32c-2 8-5 6-12-13a1100 1100 0 00-260-306 501 501 0 00-434-15c-10 5-14 3-37-20-20-20-230-165-380-263a450 450 0 00-441 6 955 955 0 00-274 355c-13 40-20 54-37 72a562 562 0 00-124 510c16 46 19 58 12 56-270-104-910-43-1180 113-20 11-36 18-37 15-4-10-58-94-77-120a1200 1200 0 00-335-274c-23-10-32-18-34-27-16-64-154-189-240-216-252-84-452-67-562 46-22 23-22 23-73 23a808 808 0 00-405 124 1327 1327 0 00-235 231c-25 36-25 36-57 3-50-50-83-70-165-100-72-25-72-25-96-90a445 445 0 00-847-3c-26 69-26 69-95 93-100 34-190 102-246 188-10 15-20 25-20 22-3-3-10-7-20-9-10-2-17-8-20-16a682 682 0 00-172-187c-102-68-325-70-425-4a714 714 0 00-173 188c-2 6-10 14-20 17-112 45-235 216-235 327 0 33 0 33-180 36-770 11-1375 370-1559 926a1206 1206 0 00-34 524 930 930 0 00 250 480c70 71 70 71 12 128-450 438 130 1166 970 1220 623 42 1325-156 1636-458 32-31 32-31 32 22 0 157 127 322 290 377 110 36 175 31 415-33l195-50c0 7 68 250 80 284 30 88 147 219 227 252 23 10-107 15-300 13-449-6-497 6-651 164-268 274-184 778 153 919 44 18 10811 10 10842-9a582 582 0 00 27-992 458 458 0 00-294-78c-296 2-1503 0-1506-2-5-5 15-13 80-35 153-50 228-182 287-349a670 670 0 00 13-406c-21-61-22-66-12-60l62 41c253 166 640 240 1073 205 506-40 1032-379 1145-735 9-30 9-30 52 113 94 306 92 303 185 397 196 198 367 185 1172-90a517 517 0 00 277-297c47-143 40-180-133-741-82-268-147-489-145-490 2-3 84-28 183-58 340-103 332-100 430-200 194-196 188-320-46-1030-54-161-253-320-402-320-89 0-266-70-333-133a396 396 0 01-110-337c16-61 10-207-8-263a424 424 0 00-248-246 8257 8257 0 00-774-126c-58 0-58 0-58-72 0-152-81-298-216-390-60-40-236-83-428-103-29-3-35-6-55-25a506 506 0 00-481-116c-82 27-104 46-276 232-87 94-173 170-298 264-57 43-57 43-96 17-145-99-295-130-420-89-43 15-43 15-45 4-2-6-9-62-16-124-41-360-258-516-603-437Z" fill="#303030" fill-rule="evenodd" clip-rule="evenodd"/><path d="M12715 1710v1144c0 76 148 76 148 0V2410s284-161 383-210c99-49 89-230 0-182l-383 207V1800c0-135-148-170-148-90Z" fill="#5093CF" fill-rule="evenodd" clip-rule="evenodd"/><path d="M8235 2084 7929 1840a53 53 0 01-15-64l52-108a53 53 0 01 76-21l352 223a53 53 0 01 14 76l-98 129a53 53 0 01-75 10Zm16-766 334 227a53 53 0 01 20 58l-31 114a53 53 0 01-76 32l-400-213a53 53 0 01-16-78l97-129a53 53 0 01 72-11Z" fill="#65B6FF"/><path d="M8997 1630a2303 2303 0 01-752 687 67 67 0 00-20 100l97 118a63 63 0 00 79 16 2039 2039 0 00 799-746 60 60 0 00-6-67l-85-112c-28-36-86-33-112 5Z" fill="url(#c)"/><path d="M8712 2488c0-3 1-6 4-8a2110 2110 0 00 386-344c2-2 5-3 8-3h240c40 0 75 17 108 53a170 170 0 01 48 123c0 3-37 2276 119 2481 61 80 137 50 212 20 116-47 230-93 288 275 58 376 28 387-156 452l-90 33c-442 111-786-70-944-485-132-346-203-2042-223-2597Z" fill="url(#d)" fill-rule="evenodd" clip-rule="evenodd"/><path d="m11150 1492-1210 224c-13 3-26 10-36 19-9 10-14 21-14 33l2 113c0 7 2 14 6 20 3 6 9 12 15 16 7 4 15 7 23 9h26l1193-222a70 70 0 00 35-17 50 50 0 00 16-30l14-115a40 40 0 00-4-22c-3-7-8-13-15-18a60 60 0 00-23-10h-28ZM10930 930l-1060 200a70 70 0 00-40 20 43 43 0 00-12 36l17 110c0 6 4 12 8 17 4 6 10 10 16 14 7 3 15 6 23 7h25l1058-195a72 72 0 00 41-22c10-10 14-23 12-36l-18-113c0-7-3-13-8-18a50 50 0 00-16-14c-7-3-15-6-23-7a80 80 0 00-25 1Z" fill="#65B6FF"/><path d="m10323 1150 73 574c1 8 3 16 7 22a60 60 0 00 14 18 50 50 0 00 18 10c7 2 13 3 20 2l147-23c13-3 24-10 32-23 7-12 10-27 8-42l-90-572c-3-15-10-29-22-38a47 47 0 00-37-11l-130 20c-12 2-23 10-30 21a62 62 0 00-10 42Z" fill="#65B6FF"/><path d="M11802 684c79 484 74 672-48 933-13 29 4 64 34 74 25 8 53 19 87 32 20 8 43 2 55-17 185-305 127-971 43-1190-8-20-30-30-50-27l-123 24c-35 7-44 44-28 76 10 20 20 50 30 95Zm555 844-202-1035a48 48 0 01 38-56l115-22a48 48 0 01 57 40c38 306 62 526 114 817 8 44 73 57 103 24 92-95 213-175 298-298 15-22 43-30 66-18l74 41a48 48 0 01 24 32 46 46 0 01-9 39c-156 200-259 257-471 438-7 5-14 10-22 10l-130 26a48 48 0 01-55-38ZM13990 562a2850 2850 0 01-572 514 50 50 0 00-21 35 50 50 0 00 12 40l62 70a50 50 0 00 65 8c262-186 403-320 605-555a50 50 0 00 11-40 50 50 0 00-22-34l-76-48a50 50 0 00-64 10Z" fill="#46E7A6"/><path d="M14639 754c-270-58-427-67-701-64a50 50 0 00-34 14l-76 74c-33 31-10 87 34 89a5140 5140 0 01 486 43 49 49 0 01 39 32 48 48 0 01-10 49c-293 333-503 474-925 627a50 50 0 00-30 32c-3 7-4 15-3 23 1 8 4 15 9 21l63 88a50 50 0 00 59 17c535-214 840-391 1143-908 15-25 0-121-54-137Z" fill="#46E7A6"/><path d="m14292 1669-467-488a50 50 0 01-3-65l65-80a50 50 0 01 73-6l479 450a50 50 0 01 7 63l-76 119a50 50 0 01-37 22 50 50 0 01-40-15ZM15720 1600l-670-110a20 20 0 01-10-6 30 30 0 01-8-11l-3-17c0-5 0-11 2-17l31-134c3-11 8-21 15-29 7-7 15-10 22-9l671 112c4 0 8 2 10 5 3 3 6 7 8 12l2 16-1 18-31 133a64 64 0 01-15 30c-7 6-15 10-22 8" fill="#46E7A6"/><path d="M1827 5245c-210 33-390 40-545 20A1310 1310 0 01 890 5152a764 764 0 01-236-175 455 455 0 01-100-183 100 100 0 01 15-88 110 110 0 01 72-49l670-106 12 2h4c5 0 10 2 16 5l4 2c41 6 80 20 118 42 41 22 85 40 132 55a380 380 0 00 166 7 290 290 0 00 134-54c39-32 55-70 48-112-6-37-23-67-52-91-26-24-78-43-156-56-78-16-200-26-369-31a1900 1900 0 01-436-68 809 809 0 01-334-198c-87-90-142-210-165-357a630 630 0 01 66-384 900 900 0 01 324-345 1467 1467 0 01 590-211c182-30 346-33 490-12a1330 1330 0 01 382 105 773 773 0 01 254 173 398 398 0 01 115 185c8 33 3 64-14 92a100 100 0 01-69 44l-604 96-30 5a10 10 0 01-4 0c-8-2-15-5-21-9l-6-1c-43-3-85-14-125-32a713 713 0 00-122-56 290 290 0 00-158-13c-53 8-94 27-124 57a120 120 0 00-30 105c5 33 20 62 46 87 26 24 80 42 160 55 81 12 207 20 377 20 221 0 402 30 544 90a722 722 0 01 320 228 674 674 0 01 133 300 638 638 0 01-78 433 895 895 0 01-372 338c-172 90-389 157-650 198Z" fill="#65B6FF"/><path d="M4385 5698a100 100 0 01-70-7 99 99 0 01-40-58l-673-2517c-7-25-5-48 7-68a90 90 0 01 56-44l542-145c23-6 45-2 68 11a80 80 0 01 43 54l267 1002c3 9 15 10 20 2a619 619 0 01 162-193 743 743 0 01 285-142c120-33 238-34 354-4a624 624 0 01 312 189 900 900 0 01 209 402l252 943c7 25 4 48-10 71a92 92 0 01-53 40L5570 5380c-24 7-48 5-70-6a99 99 0 01-40-59l-247-919c-22-83-60-142-112-177a224 224 0 00-189-22c-73 20-125 58-155 115-30 56-35 126-12 210L4990 5440c7 25 4 49-10 72a92 92 0 01-53 40l-543 145Z" fill="#46E7A6"/><path d="M7054 4426c-339-47-597-168-774-362-174-196-240-467-197-813l6-39 5-39a1128 1128 0 01 223-524 896 896 0 01 430-288c177-55 376-66 598-35 250 35 449 112 598 230a912 912 0 01 317 430c60 167 76 348 48 542l-15 109a96 96 0 01-42 65 110 110 0 01-82 20l-1245-174c-4 0-8 2-9 6 0 6 0 10-2 16-8 62-8 120 1 170 13 50 36 92 70 125 34 32 78 51 133 59a217 217 0 00 158-33c21-16 40-30 56-44 27-20 50-32 67-35a180 180 0 01 74 0l639 89c24 3 43 14 57 32a63 63 0 01 17 61c-10 47-40 100-94 162a780 780 0 01-221 163c-93 50-209 87-348 110a1559 1559 0 01-468-3ZM6980 3103c0 5 2 9 7 10l488 68c5 0 8-3 10-7 9-70 8-130-4-183a214 214 0 00-70-120 243 243 0 00-133-59c-54-8-102-1-144 20a210 210 0 00-100 96 503 503 0 00-54 175Zm4589 1762a1038 1038 0 01-397-167 602 602 0 01-220-317c-40-135-37-303 5-501l134-630a10 10 0 00-8-12l-262-56c-26-5-45-20-60-42a125 125 0 01-8-80l85-402c6-29 20-50 40-66a86 86 0 01 72-18l262 56c6 1 11-2 12-8L11360 1980c6-29 19-51 40-66a86 86 0 01 71-18l500 106c26 6 44 20 56 45a100 100 0 01 12 78l-137 642c0 5 3 10 8 11l425 90a80 80 0 01 55 46 100 100 0 01 12 77l-85 401c-6 30-20 53-44 70a80 80 0 01-68 15l-424-90a10 10 0 00-12 7l-120 563c-16 76-15 140 3 191 19 48 58 79 118 92l290 61c24 6 43 20 54 45a100 100 0 01 13 78l-92 433c-7 29-21 52-44 70a80 80 0 01-68 14l-355-76Z" fill="#65B6FF"/><path d="M13689 5084c-330 6-594-74-792-240-196-168-300-427-310-778l-1-40v-40a1170 1170 0 01 132-556 877 877 0 01 366-354 1270 1270 0 01 563-129c243-4 445 41 604 136a901 901 0 01 367 378 1180 1180 0 01 128 532l2 110c0 27-10 50-30 72a100 100 0 01-75 33l-1210 21c-5 0-8 4-8 8v16c1 64 10 120 27 170 19 47 47 85 85 113 37 26 82 38 135 37a194 194 0 00 145-58 690 690 0 00 47-52 176 176 0 01 60-45c15-8 38-12 70-12l620-11a80 80 0 01 60 22 64 64 0 01 25 60 393 393 0 01-64 175 767 767 0 01-187 197 1020 1020 0 01-313 164 1440 1440 0 01-446 70Zm-272-1306c0 5 3 8 8 8l474-8c5 0 8-4 8-8a526 526 0 00-30-182 226 226 0 00-220-147c-54 2-98 16-135 43a214 214 0 00-80 112c-19 50-27 111-25 182Z" fill="#46E7A6"/><path d="M15624 4987c-30 9-60 7-88-5a130 130 0 01-53-70l-590-1932c-10-30-7-58 6-83a110 110 0 01 68-57l599-183c30-10 58-6 84 10a98 98 0 01 56 64l40 130a10 10 0 00 19 3 909 909 0 01 540-433l186-57c30-10 60-6 88 10a98 98 0 01 56 63l163 533c10 30 6 60-10 88a112 112 0 01-68 57l-462 142c-99 30-167 80-203 148-37 65-40 148-10 247l301 986c10 30 7 60-9 89a105 105 0 01-65 52l-648 198Z" fill="#65B6FF"/><path d="M8277 5000c-33 3-64 0-93-12-29-12-52-30-71-58a220 220 0 01-36-105l-25-239c0-6 1-11 5-16 5-5 10-8 17-8l145-16c7 0 13 1 18 5s8 9 9 15l24 232c5 44 28 64 70 60 20-2 36-10 46-22a70 70 0 00 12-51l-24-232c0-7 0-12 5-16 4-6 10-8 16-10l146-14c6-1 12 0 17 5 6 3 9 8 10 14l41 402c1 6 0 12-5 17-5 4-10 7-16 7l-135 14c-6 1-13 0-18-4s-7-10-8-15c-1-10-15-13-22-6-10 11-24 20-39 29-25 12-55 20-89 24Zm-1504 319c-33 8-64 10-94 3s-57-23-80-46a220 220 0 01-51-99l-62-231a20 20 0 01 2-17c4-6 9-10 15-11l142-38a20 20 0 01 17 2c6 3 10 7 12 13l60 226c12 43 38 59 80 48 19-6 32-15 40-30 9-13 10-30 4-51l-60-226a20 20 0 01 2-17c4-5 9-10 15-10l142-39c6-1 12 0 18 3 5 2 10 7 10 13l105 390c2 5 0 11-3 17a20 20 0 01-14 10l-130 35c-7 2-14 2-20-1-5-3-8-8-10-14-2-10-17-10-22-3a160 160 0 01-34 35 262 262 0 01-84 38Zm644 106c-10 2-18 0-24-3a50 50 0 01-14-17L7150 4950a50 50 0 01-3-9c0-6 0-12 3-17 4-6 10-10 16-10l130-24a30 30 0 01 23 5c6 3 10 7 12 11v3l89 180c9 19 35 14 38-6l24-200c0-6 3-12 7-18 5-7 12-10 22-12l80-14c10-2 18 0 24 4 7 4 10 9 13 13l92 181a20 20 0 00 37-7l22-201c0-5 3-10 7-16a30 30 0 01 20-13l130-23c7 0 13 0 18 5 6 4 9 9 10 15v10l-60 505-8 20c-4 6-11 10-21 11l-113 20c-10 2-18 0-24-3-6-5-10-10-15-17l-96-179a20 20 0 00-38 7l-30 201a30 30 0 01-8 20c-3 7-10 10-20 12l-113 20Z" fill="#79BAF4"/><path d="M3591 3865 3473 3420a70 70 0 00-128-17L3020 3967a70 70 0 00 79 103l444-120a70 70 0 00 50-85Z" fill="#46E7A6"/><path d="m3747 4444-120-444a70 70 0 00-127-17l-326 564a70 70 0 00 79 102l444-119a70 70 0 00 50-86Z" fill="#65B6FF"/><path d="m3902 5024-120-444a70 70 0 00-127-17L3330 5126a70 70 0 00 78 103l445-120a70 70 0 00 50-85Z" fill="#5093CF"/><path d="M9962 2644a462 462 0 01 532-123c140 72 170 208 78 334a462 462 0 01-532 123c-140-72-170-208-78-334Z" fill="#5093CF" fill-rule="evenodd" clip-rule="evenodd"/><path d="M10146 2292c-23-85-88-141-144-126-57 16-84 97-60 182 23 85 88 142 144 126 56-16 84-97 60-182Zm236-55c-24-85-86-141-140-126s-79 96-56 180c24 86 86 143 140 128 54-16 79-97 56-182Zm275 76c-24-85-88-141-145-126-56 16-83 97-60 182 23 85 88 142 144 126 57-16 84-97 60-182ZM9932 2480c-23-85-88-141-144-126-57 16-84 98-60 183 23 85 87 140 144 125 56-16 83-97 60-182Z" fill="#5093CF"/><path d="M9995 3818c170-67 423 20 516 178 80 135 34 267-112 325-170 67-424-20-516-178-80-135-34-267 112-325Z" fill="#5093CF" fill-rule="evenodd" clip-rule="evenodd"/><path d="M10337 3617c25-84 0-166-56-183-56-16-122 39-147 123-26 84 0 166 56 183 56 16 122-38 147-123Zm228 79c26-85 3-166-50-181-55-16-119 40-144 124s-3 165 51 180c54 17 118-39 143-123Zm194 210c25-85 0-167-56-183-56-17-123 38-148 122-25 85 0 166 56 183 56 17 122-38 148-123Zm-703-243c25-84 0-166-56-183-57-16-123 39-148 123s0 166 56 183c56 17 122-38 148-123ZM5143 3170a40 40 0 01-32-47l20-110a40 40 0 00-30-47 809 809 0 01-250-105 466 466 0 01-217-353 620 620 0 01 70-360 420 420 0 01 327-222 813 813 0 01 259 4 40 40 0 00 47-33l12-66a40 40 0 01 47-32l162 33a40 40 0 01 30 47l-12 70a40 40 0 00 30 46 790 790 0 01 244 100 444 444 0 01 226 337 632 632 0 01-65 362c-30 56-70 106-123 149a480 480 0 01-203 90 783 783 0 01-267-2 40 40 0 00-47 33l-20 107a40 40 0 01-47 32l-161-33Zm-5-425c22 7 44-8 48-30l96-518a40 40 0 00-33-46c-76-10-138-6-184 8a222 222 0 00-122 86 361 361 0 00-52 134c-10 56-10 109 2 158s40 92 84 130c39 31 92 57 160 78Zm288 20c-4 23 10 44 33 46 72 9 130 6 177-10a220 220 0 00 125-86c29-40 48-89 58-145 10-50 9-100-2-146-10-47-37-90-81-127a456 456 0 00-166-80 40 40 0 00-49 31l-95 518Z" fill="#5093CF"/><path d="M2428 2153a50 50 0 01 94 0l43 120a50 50 0 00 30 30l122 42a50 50 0 01 0 93l-122 42a50 50 0 00-30 30l-43 120a50 50 0 01-94 0l-43-120a50 50 0 00-30-30l-122-42a50 50 0 01 0-93l122-42a50 50 0 00 30-30l43-120Zm594 559c10-30 52-30 63 0l28 80c4 10 11 16 20 20l81 28c30 10 30 52 0 62l-80 28c-10 4-17 10-20 20l-30 80c-10 30-52 30-62 0l-29-80c-3-10-10-16-20-20l-80-28c-30-10-30-52 0-62l80-28c10-4 17-10 20-20l29-80Zm588-884a73 73 0 01 136 0l78 217c8 20 24 36 44 43l220 77a71 71 0 01 0 135l-220 77c-20 7-36 23-44 43l-78 218a73 73 0 01-136 0l-78-218a70 70 0 00-44-43l-220-77a71 71 0 01 0-135l220-77c20-7 37-23 44-43l78-217Z" fill="#79BAF4"/><path d="M10985 5149c27 15 40 32 38 50a50 50 0 01-9 23l-4 6-6 11-228 394a160 160 0 01-12 20 40 40 0 01-14 12c-6 3-13 5-22 4-8-1-20-6-37-15-27-15-40-31-37-49 0-10 27-58 77-142 6-9 6-20 2-29l-110-240a80 80 0 01-11-36c1-15 16-30 43-42 18-8 30-10 40-10a40 40 0 01 21 8c6 4 10 9 11 13l32 71c10 20 20 40 28 60 11 23 48 24 60 2a8799 8799 0 01 72-116 30 30 0 01 27-10c12 2 25 7 40 15Zm75 67 3-24 9-19c8-12 27-16 58-13 23 3 38 9 47 18 7 7 10 18 10 32l-2 20-26 250-4 26c-1 5-4 10-9 17-7 12-26 16-57 13-30-3-47-11-53-25a79 79 0 01-2-44l26-251Zm131-120c-4 6-10 10-20 12-10 2-21 2-37 0-15 0-26-3-35-7-9-4-15-10-18-17-2-8-4-14-4-20a292 292 0 01 5-49 70 70 0 01 8-18c8-12 28-16 58-13 30 3 48 11 52 25 3 7 5 14 5 20l-1 24-4 25a50 50 0 01-9 18Zm8 555 43-417 4-25c1-5 4-10 8-17 8-12 25-17 50-14 25 3 42 8 50 15 9 8 28 15 39 10 17-8 38-10 63-8 39 4 74 26 105 66a186 186 0 01-27 256c-39 33-77 48-116 44l-10-2c-28-4-78 16-80 45l-7 60-4 23c-1 6-4 11-8 18-4 6-10 10-20 13-9 2-20 2-35 0-15-1-27-4-36-8-8-4-13-9-17-16-2-7-4-13-4-19 0-5 0-13 2-24Zm177-322a64 64 0 00-21 40c-2 16 2 30 12 45a60 60 0 00 87 10 59 59 0 00 23-41 60 60 0 00-13-44 58 58 0 00-43-24c-18-2-33 3-45 14Zm637 69c-3 29-12 50-29 63a68 68 0 01-50 15l-140-14c-16-2-30 11-20 24l10 8a100 100 0 00 47 19c27 3 50 2 66-2l8-2c12-4 22-5 30-5 14 2 26 14 35 37a80 80 0 01 6 34c-5 42-58 58-160 47-34-4-65-13-92-28a163 163 0 01-58-55 207 207 0 01-32-134c7-60 31-106 73-138a210 210 0 01 152-39c66 7 113 36 138 86 14 26 20 54 16 84Zm-153 5c18 2 28-5 30-20 1-11-2-20-10-28-8-8-20-12-35-14-22-2-44 12-59 27-11 12-3 27 14 28l60 7Zm563 38c-3 29-13 50-29 63a68 68 0 01-50 15l-140-14c-16-2-30 12-20 24l10 9c15 10 30 16 46 18 28 3 50 2 66-2l9-2c12-4 21-5 29-5 15 2 27 14 36 37a80 80 0 01 6 34c-5 42-58 58-160 47-34-4-65-13-92-28a163 163 0 01-58-55 207 207 0 01-32-134c7-60 31-106 73-138a210 210 0 01 152-39c66 7 112 36 138 86 14 26 20 54 16 84Zm-153 5c18 2 28-5 30-20a40 40 0 00-10-28c-8-8-20-12-35-14-22-2-44 12-59 27-11 12-3 27 14 28l60 7Z" fill="#5093CF"/><path d="M14146 2590c-9 0-15-2-20-5l-255-168c-11-7-20-17-24-27a72 72 0 01-7-30 68 68 0 01 31-57l256-168a30 30 0 01 19-5c15 0 30 7 45 21a69 69 0 01 23 53c0 20-6 33-18 40L14020 2360l177 116c12 7 18 20 18 40s-8 38-23 53c-15 14-30 21-45 21Zm638 0c-15 0-30-7-45-21a69 69 0 01-23-53c0-20 6-33 18-40L14910 2360l-177-116c-12-7-18-20-18-40s8-38 23-53c15-14 30-21 45-21 9 0 15 2 20 5l255 168c11 7 20 17 24 27 5 11 7 21 7 30a68 68 0 01-31 57l-256 168a30 30 0 01-19 5Zm-475 70a70 70 0 01-50-19 56 56 0 01-19-40c0-6 2-13 6-20l319-523c10-19 27-28 52-28 17 0 34 6 50 17a48 48 0 01 18 62l-320 523c-4 8-12 15-22 20a80 80 0 01-34 8Z" fill="#79BAF4"/><path d="M3620 6802c-39 0-74-9-104-25a186 186 0 01-96-172c0-40 8-75 25-106 17-30 40-55 70-73a200 200 0 01 105-27c39 0 73 9 102 25a191 191 0 01 92 185c0 12-10 20-20 20h-260a33 33 0 01 0-67h112c28 0 53-27 32-47l-4-4a76 76 0 00-53-20 84 84 0 00-76 46c-8 15-12 35-12 58v23c0 18 3 33 10 47a79 79 0 00 30 32c13 8 29 12 46 12a90 90 0 00 42-10l7-5c14-11 30-22 48-22h20c34 0 58 33 37 59a185 185 0 01-152 70Zm531 0a240 240 0 01-94-17 158 158 0 01-72-63c-14-26 10-52 40-52h33c15 0 28 12 37 24a60 60 0 00 22 16c10 4 20 5 32 5a80 80 0 00 30-4c9-4 15-8 19-14a30 30 0 00 6-17c0-10-3-17-10-22-5-6-13-10-24-13l-40-10-56-13c-18-6-34-13-48-20a130 130 0 01-34-32 105 105 0 01 7-110c13-19 31-33 55-44 24-11 53-17 87-17 49 0 87 10 114 32 12 10 22 20 30 33 16 25-8 53-39 53h-18c-18 0-34-14-50-23-10-5-22-8-37-8a70 70 0 00-38 8c-9 6-13 13-13 23 0 6 3 11 9 16 6 5 14 9 25 13 12 3 25 7 42 10a740 740 0 01 80 22c23 7 40 18 53 33 13 14 20 35 19 63a110 110 0 01-20 66c-13 20-32 34-57 46-25 10-55 16-90 16Zm504 0a240 240 0 01-94-17 158 158 0 01-71-63c-14-26 10-52 39-52h33c15 0 28 12 37 24a60 60 0 00 22 16c10 4 20 5 32 5a80 80 0 00 30-4c9-4 15-8 19-14a30 30 0 00 6-17c0-10-3-17-10-22-5-6-13-10-24-13l-40-10a1090 1090 0 01-56-13c-18-6-34-13-48-20-14-9-25-20-33-32a105 105 0 01 7-110 120 120 0 01 54-44c24-11 53-17 87-17 49 0 87 10 114 32 12 10 22 20 30 33 16 25-8 53-38 53h-20c-17 0-33-14-49-23-10-5-22-8-37-8a70 70 0 00-38 8c-8 6-13 13-13 23 0 6 3 11 9 16 6 5 14 9 26 13l40 10a650 650 0 01 81 22c23 7 40 18 54 33 12 14 18 35 18 63a110 110 0 01-20 66c-13 20-32 34-57 46-25 10-55 16-90 16Zm534 0c-40 0-75-9-105-25a186 186 0 01-96-172c0-40 8-75 25-106 17-30 40-55 70-73a200 200 0 01 105-27c39 0 72 9 101 25a191 191 0 01 92 185 20 20 0 01-20 20h-258a33 33 0 01 0-67h110c29 0 53-27 33-47l-4-4a76 76 0 00-53-20 84 84 0 00-76 46c-8 15-12 35-12 58v23c0 18 3 33 10 47a79 79 0 00 30 32c13 8 28 12 46 12 17 0 30-4 41-10l7-5c14-11 30-22 48-22h21c34 0 57 33 37 59l-7 7a195 195 0 01-145 64Zm420-10a50 50 0 01-50-50v-284a50 50 0 01 50-50h36c8 0 14 6 16 14 2 16 25 20 37 10a140 140 0 01 97-33c32 0 60 7 81 20 22 15 39 34 50 60 12 26 17 57 17 94v170a50 50 0 01-50 50H5880a50 50 0 01-50-50v-160c0-27-6-49-19-64-11-16-30-24-56-24a80 80 0 00-42 12 75 75 0 00-30 30c-6 15-10 31-10 50v155a50 50 0 01-50 50H5610Zm702 0c-28 0-53-4-74-13a98 98 0 01-50-44c-12-20-17-48-17-83v-116c0-18-15-32-33-32a33 33 0 01-33-33v-28c0-20 15-35 35-35 17 0 32-13 34-30l4-33a50 50 0 01 50-45h7a50 50 0 01 50 50v10a50 50 0 00 50 48h1a48 48 0 11 0 96h-2a50 50 0 00-49 49v100c0 16 3 27 10 33 7 7 20 10 36 10h4a48 48 0 11 0 96h-23Zm303 0a50 50 0 01-50-50v-284a50 50 0 01 50-50h14a50 50 0 01 50 50v284a50 50 0 01-50 50h-14Zm7-428a70 70 0 01-50-17 57 57 0 01-19-45c0-18 7-33 20-44a70 70 0 01 50-18c20 0 37 6 50 18 13 11 20 26 20 44a60 60 0 01-20 45 72 72 0 01-50 17Zm381 438a190 190 0 01-80-16c-20-10-36-24-46-40a120 120 0 01 2-120 130 130 0 01 54-42c25-10 55-16 93-16h50c23 0 45-20 36-42-4-11-11-20-20-25a80 80 0 00-40-9 100 100 0 00-45 10l-1 1c-20 13-40 33-63 33h-15c-29 0-53-26-40-52l12-20c16-20 37-36 63-47 26-12 56-18 90-18 36 0 68 6 95 19 27 11 48 28 62 51a150 150 0 01 23 86v187a50 50 0 01-50 50h-31c-8 0-15-5-17-13l-3-10c-3-12-20-14-28-6-7 8-16 15-26 21a167 167 0 01-74 18Zm29-87a72 72 0 00 56-23 125 125 0 00 26-56h-75a80 80 0 00-32 5c-8 3-14 7-18 13-4 7-6 14-6 22 0 8 2 16 6 22 5 5 10 10 18 13a80 80 0 00 25 4Zm438 77a50 50 0 01-50-50v-448a50 50 0 01 50-50h15a50 50 0 01 50 50v448a50 50 0 01-50 50h-15Zm306 0a50 50 0 01-50-50v-448a50 50 0 01 50-50h15a50 50 0 01 50 50v448a50 50 0 01-50 50h-15Zm384 168a50 50 0 01-46-70l52-115c11-25-83-180-137-296a50 50 0 01 46-70h15a50 50 0 01 45 29l43 95c53 102 43 127 93-3l33-90a50 50 0 01 47-32h13a50 50 0 01 46 70L8216 6930a50 50 0 01-46 30h-10Zm935-158c-20 0-36-3-51-7a143 143 0 01-45-24c-11-9-30-5-34 9-2 7-8 12-16 12h-39a50 50 0 01-50-50v-448a50 50 0 01 50-50h15a50 50 0 01 50 50v100c0 20 30 32 47 22a170 170 0 01 166 10 204 204 0 01 91 175c0 38-8 73-25 103a173 173 0 01-160 98Zm-28-100a92 92 0 00 83-48 110 110 0 00 12-53c0-20-4-37-12-52a93 93 0 00-83-50 94 94 0 00-84 50c-9 14-13 32-13 52s4 37 13 52a91 91 0 00 84 49Zm537 100c-33 0-60-7-82-20a128 128 0 01-50-58 238 238 0 01-17-95v-170a50 50 0 01 50-50h14a50 50 0 01 50 50v159c0 28 6 50 18 65 11 15 30 23 56 23 16 0 30-4 42-11a70 70 0 00 30-31c6-14 10-30 10-50v-156a50 50 0 01 50-50h15a50 50 0 01 50 50v284a50 50 0 01-50 50h-37c-8 0-14-5-16-13-2-15-25-20-36-10a150 150 0 01-97 33Zm477-10a50 50 0 01-50-50v-448a50 50 0 01 50-50h14a50 50 0 01 50 50v448a50 50 0 01-50 50h-14Zm305 0a50 50 0 01-50-50v-448a50 50 0 01 50-50h15a50 50 0 01 50 50v448a50 50 0 01-50 50h-15Zm445 10c-40 0-74-9-104-25a186 186 0 01-96-172c0-40 8-75 25-106 17-30 40-55 70-73a200 200 0 01 105-27c38 0 72 9 101 25a191 191 0 01 93 185c0 12-10 20-21 20h-259a33 33 0 01 0-67h111c29 0 53-27 33-47a80 80 0 00-58-24 85 85 0 00-76 46 130 130 0 00-11 58v23c0 18 3 33 10 47a79 79 0 00 30 32c13 8 28 12 46 12a77 77 0 00 48-15c14-11 30-22 48-22h21c34 0 57 33 37 59l-7 7a194 194 0 01-146 64Zm548-10c-28 0-53-4-75-13a110 110 0 01-50-44c-10-20-17-48-17-83v-116c0-18-14-32-33-32a33 33 0 01-32-33v-28c0-20 15-35 34-35 18 0 33-13 35-30l3-33a50 50 0 01 50-45h8a50 50 0 01 50 50v10a50 50 0 00 50 48 48 48 0 01 0 96 50 50 0 00-50 49v100c0 16 3 27 10 33 7 7 19 10 36 10h4a48 48 0 11 0 96h-23Zm301 168a50 50 0 01-50-50v-452a50 50 0 01 50-50h38c8 0 15 6 17 14 4 15 24 20 35 10l3-3c10-10 23-16 38-21a175 175 0 01 213 90c17 30 25 65 25 103 0 39-9 73-25 104-17 30-39 53-66 70a170 170 0 01-93 27c-27 0-50-5-70-15s-50 3-50 24v99a50 50 0 01-50 50h-15Zm156-258c19 0 35-4 50-12a90 90 0 00 34-36 110 110 0 00 12-53c0-20-4-37-12-52a90 90 0 00-35-36 80 80 0 00-49-14 94 94 0 00-84 50c-8 15-12 32-12 51 0 20 4 38 12 53a90 90 0 00 84 49Zm442 90a50 50 0 01-50-50v-284a50 50 0 01 50-50h35c10 0 18 8 20 17 2 19 28 25 42 13l1-1a156 156 0 01 57-30c27-9 50 15 50 42v33c0 21-17 38-39 38a130 130 0 00-41 6 80 80 0 00-33 16c-8 7-15 18-20 30-5 14-7 30-7 49v121a50 50 0 01-50 50h-15Zm545 10a195 195 0 01-170-97 200 200 0 01-27-104c0-40 9-74 26-104a190 190 0 01 170-98 190 190 0 01 171 98c18 30 27 64 27 103 0 40-9 74-26 105a191 191 0 01-171 97Zm0-100c15 0 28-3 40-10 12-9 22-20 30-35 6-15 10-34 10-57 0-22-4-40-10-56a80 80 0 00-30-34 73 73 0 00-40-12c-15 0-29 4-40 12a80 80 0 00-30 34c-6 15-10 34-10 56 0 23 4 42 10 57a80 80 0 00 30 34c11 8 25 11 40 11Zm561 100a195 195 0 01-170-97c-18-30-26-65-26-104 0-40 8-74 26-104a190 190 0 01 170-98 190 190 0 01 171 98c18 30 26 64 26 103 0 40-8 74-26 105a191 191 0 01-170 97Zm0-100c15 0 29-3 40-10 13-9 23-20 30-35 7-15 10-34 10-57 0-22-3-40-10-56a80 80 0 00-29-34 73 73 0 00-40-12 70 70 0 00-41 12 80 80 0 00-29 34c-7 15-10 34-10 56 0 23 3 42 10 57a80 80 0 00 29 34 70 70 0 00 40 11Zm443 90a50 50 0 01-50-50v-361c0-34 6-60 18-80a100 100 0 01 48-43c22-10 46-14 74-14 27 0 49 21 49 48v18a30 30 0 01-30 30c-17 0-28 4-35 10-6 6-10 16-10 30v362a50 50 0 01-50 50h-14Zm-53-288a48 48 0 01 0-96h150a48 48 0 01 0 96h-150Z" fill="#5093CF"/><defs><linearGradient id="a" x1="6709" x2="8200" y1="1918" y2="6181" gradientUnits="userSpaceOnUse"><stop offset=".3" stop-color="#65B6FF" stop-opacity=".8"/><stop offset="1" stop-color="#65B6FF"/></linearGradient><linearGradient id="b" x1="8695" x2="8695" y1="0" y2="7370" gradientUnits="userSpaceOnUse"><stop offset=".2" stop-color="#65B6FF"/><stop offset="1" stop-color="#46E7A6"/></linearGradient><linearGradient id="c" x1="6709" x2="8200" y1="1918" y2="6181" gradientUnits="userSpaceOnUse"><stop offset=".3" stop-color="#65B6FF" stop-opacity=".8"/><stop offset="1" stop-color="#65B6FF"/></linearGradient><linearGradient id="d" x1="8695" x2="8695" y1="0" y2="7370" gradientUnits="userSpaceOnUse"><stop offset=".2" stop-color="#65B6FF"/><stop offset="1" stop-color="#46E7A6"/></linearGradient></defs></svg>
