<svg width="322" height="322" viewBox="0 0 322 322" fill="none" xmlns="http://www.w3.org/2000/svg">
<g clip-path="url(#clip0_77_26)">
<path d="M297 0H25C11.1929 0 0 11.1929 0 25V297C0 310.807 11.1929 322 25 322H297C310.807 322 322 310.807 322 297V25C322 11.1929 310.807 0 297 0Z" fill="url(#paint0_linear_77_26)"/>
<g filter="url(#filter0_d_77_26)">
<path d="M99.4277 199.184C103.018 227.904 130.909 239.778 161.286 239.778C197.186 239.778 221.763 224.037 221.763 193.661C221.763 175.158 209.889 159.97 185.587 154.723L152.725 147.543C141.955 145.058 140.298 140.363 140.298 135.945C140.298 129.593 144.441 122.413 159.077 122.413C174.265 122.413 183.93 130.422 185.311 141.468L220.106 134.564C215.412 110.539 192.767 93.6935 160.181 93.6935C125.386 93.6935 103.846 112.748 103.846 139.259C103.846 159.142 117.93 173.225 142.784 178.472L170.951 184.271C182.826 186.757 186.14 191.728 186.14 196.698C186.14 204.431 178.131 210.506 164.6 210.506C150.24 210.506 138.089 205.811 136.156 191.728L99.4277 199.184Z" fill="#CCFFED"/>
</g>
</g>
<defs>
<filter id="filter0_d_77_26" x="99.4277" y="93.6935" width="122.335" height="153.085" filterUnits="userSpaceOnUse" color-interpolation-filters="sRGB">
<feFlood flood-opacity="0" result="BackgroundImageFix"/>
<feColorMatrix in="SourceAlpha" type="matrix" values="0 0 0 0 0 0 0 0 0 0 0 0 0 0 0 0 0 0 127 0" result="hardAlpha"/>
<feOffset dy="7"/>
<feComposite in2="hardAlpha" operator="out"/>
<feColorMatrix type="matrix" values="0 0 0 0 0 0 0 0 0 0 0 0 0 0 0 0 0 0 0.25 0"/>
<feBlend mode="normal" in2="BackgroundImageFix" result="effect1_dropShadow_77_26"/>
<feBlend mode="normal" in="SourceGraphic" in2="effect1_dropShadow_77_26" result="shape"/>
</filter>
<linearGradient id="paint0_linear_77_26" x1="161" y1="0" x2="161" y2="1105" gradientUnits="userSpaceOnUse">
<stop stop-color="#2A3B4B"/>
<stop offset="1" stop-color="#2BFAAC"/>
</linearGradient>
<clipPath id="clip0_77_26">
<rect width="322" height="322" fill="white"/>
</clipPath>
</defs>
</svg>
