<svg xmlns="http://www.w3.org/2000/svg" width="302" height="322" fill="none" viewBox="0 0 302 322"><rect width="302" height="322" fill="url(#paint0_linear_201_2)"/><g filter="url(#filter0_d_201_2)"><path fill="#CCFFED" d="M93.252 196.812C96.619 223.748 122.778 234.885 151.268 234.885C184.938 234.885 207.989 220.122 207.989 191.632C207.989 174.279 196.852 160.034 174.06 155.113L143.239 148.379C133.138 146.048 131.584 141.645 131.584 137.501C131.584 131.544 135.469 124.81 149.196 124.81C163.441 124.81 172.506 132.321 173.801 142.681L206.435 136.206C202.032 113.673 180.794 97.874 150.232 97.874C117.598 97.874 97.396 115.745 97.396 140.609C97.396 159.257 110.605 172.466 133.915 177.387L160.333 182.826C171.47 185.157 174.578 189.819 174.578 194.481C174.578 201.733 167.067 207.431 154.376 207.431C140.908 207.431 129.512 203.028 127.699 189.819L93.252 196.812Z"/></g><defs><filter id="filter0_d_201_2" width="114.737" height="144.011" x="93.252" y="97.874" color-interpolation-filters="sRGB" filterUnits="userSpaceOnUse"><feFlood flood-opacity="0" result="BackgroundImageFix"/><feColorMatrix in="SourceAlpha" result="hardAlpha" type="matrix" values="0 0 0 0 0 0 0 0 0 0 0 0 0 0 0 0 0 0 127 0"/><feOffset dy="7"/><feComposite in2="hardAlpha" operator="out"/><feColorMatrix type="matrix" values="0 0 0 0 0 0 0 0 0 0 0 0 0 0 0 0 0 0 0.25 0"/><feBlend in2="BackgroundImageFix" mode="normal" result="effect1_dropShadow_201_2"/><feBlend in="SourceGraphic" in2="effect1_dropShadow_201_2" mode="normal" result="shape"/></filter><linearGradient id="paint0_linear_201_2" x1="151" x2="151" y1="0" y2="1105" gradientUnits="userSpaceOnUse"><stop stop-color="#2A3B4B"/><stop offset="1" stop-color="#2BFAAC"/><stop offset="1" stop-color="#2BFAAC"/></linearGradient></defs></svg>