<?xml version="1.0" encoding="UTF-8" standalone="no"?>
<svg
   width="900"
   height="322"
   fill="none"
   viewBox="0 0 900 322"
   version="1.1"
   id="svg5"
   sodipodi:docname="really-good-banner.svg"
   inkscape:export-filename="../png/really-good-banner.png"
   inkscape:export-xdpi="960"
   inkscape:export-ydpi="960"
   inkscape:version="1.3.2 (091e20ef0f, 2023-11-25, custom)"
   xmlns:inkscape="http://www.inkscape.org/namespaces/inkscape"
   xmlns:sodipodi="http://sodipodi.sourceforge.net/DTD/sodipodi-0.dtd"
   xmlns="http://www.w3.org/2000/svg"
   xmlns:svg="http://www.w3.org/2000/svg">
  <sodipodi:namedview
     id="namedview5"
     pagecolor="#ffffff"
     bordercolor="#000000"
     borderopacity="0.25"
     inkscape:showpageshadow="2"
     inkscape:pageopacity="0.0"
     inkscape:pagecheckerboard="0"
     inkscape:deskcolor="#d1d1d1"
     inkscape:zoom="1.6666667"
     inkscape:cx="270.6"
     inkscape:cy="129.9"
     inkscape:window-width="1898"
     inkscape:window-height="1040"
     inkscape:window-x="0"
     inkscape:window-y="0"
     inkscape:window-maximized="1"
     inkscape:current-layer="svg5" />
  <rect
     width="900"
     height="322"
     fill="url(#paint0_linear_3_2)"
     id="rect1"
     rx="25" />
  <g
     filter="url(#filter0_d_3_2)"
     id="g1"
     style="display:none">
    <path
       fill="#ccffed"
       d="m 156.18,196.58 c 2.405,19.24 21.09,27.195 41.44,27.195 24.05,0 40.515,-10.545 40.515,-30.895 0,-12.395 -7.955,-22.57 -24.235,-26.085 l -22.015,-4.81 c -7.215,-1.665 -8.325,-4.81 -8.325,-7.77 0,-4.255 2.775,-9.065 12.58,-9.065 10.175,0 16.65,5.365 17.575,12.765 l 23.31,-4.625 c -3.145,-16.095 -18.315,-27.38 -40.145,-27.38 -23.31,0 -37.74,12.765 -37.74,30.525 0,13.32 9.435,22.755 26.085,26.27 l 18.87,3.885 c 7.955,1.665 10.175,4.995 10.175,8.325 0,5.18 -5.365,9.25 -14.43,9.25 -9.62,0 -17.76,-3.145 -19.055,-12.58 z m 154.277,-70.67 c -12.21,0 -21.83,3.885 -29.045,11.1 V 87.8 h -24.42 V 221 h 24.42 v -40.885 c 0,-22.57 9.065,-31.82 22.94,-31.82 11.285,0 18.685,8.695 18.685,21.645 V 221 h 24.42 v -56.24 c 0,-22.94 -14.8,-38.85 -37,-38.85 z m 147.85,47.175 c -0.925,-28.12 -22.2,-47.175 -46.805,-47.175 -26.455,0 -47.73,19.98 -47.73,49.025 0,29.045 21.275,48.84 47.36,48.84 20.165,0 36.63,-9.25 44.77,-28.49 l -21.83,-4.625 c -6.66,11.285 -15.725,12.21 -22.94,12.21 -11.285,0 -20.72,-8.14 -23.125,-21.46 h 70.3 z m -46.805,-25.9 c 9.805,0 18.685,5.18 21.83,17.02 h -44.585 c 2.96,-11.47 13.505,-17.02 22.755,-17.02 z M 501.28,221 V 87.8 H 476.86 V 221 Z m 86.11,-24.42 c -4.81,2.59 -11.1,4.44 -15.355,4.44 -8.14,0 -13.505,-4.81 -13.505,-15.91 v -36.445 h 30.155 v -19.98 H 558.53 V 100.75 h -24.42 v 27.935 h -19.795 v 19.98 h 19.795 v 38.295 c 0,25.345 14.43,36.815 36.26,36.815 7.77,0 14.43,-1.665 24.05,-6.845 z m 105.419,-23.495 c -0.925,-28.12 -22.2,-47.175 -46.805,-47.175 -26.455,0 -47.73,19.98 -47.73,49.025 0,29.045 21.275,48.84 47.36,48.84 20.165,0 36.63,-9.25 44.77,-28.49 l -21.83,-4.625 c -6.66,11.285 -15.725,12.21 -22.94,12.21 -11.285,0 -20.72,-8.14 -23.125,-21.46 h 70.3 z m -46.805,-25.9 c 9.805,0 18.685,5.18 21.83,17.02 h -44.585 c 2.96,-11.47 13.505,-17.02 22.755,-17.02 z M 768.897,127.39 c -14.985,0 -25.715,7.4 -33.115,18.13 v -16.835 h -24.42 V 221 h 24.42 v -29.785 c 0,-25.715 10.36,-39.59 32.93,-39.59 h 5.365 l 1.295,-23.495 c -2.22,-0.74 -4.07,-0.74 -6.475,-0.74 z"
       id="path1"
       style="display:inline" />
  </g>
  <defs
     id="defs5">
    <filter
       id="filter0_d_3_2"
       width="619.192"
       height="140.975"
       x="156.18"
       y="87.8"
       color-interpolation-filters="sRGB"
       filterUnits="userSpaceOnUse">
      <feFlood
         flood-opacity="0"
         result="BackgroundImageFix"
         id="feFlood1" />
      <feColorMatrix
         in="SourceAlpha"
         result="hardAlpha"
         type="matrix"
         values="0 0 0 0 0 0 0 0 0 0 0 0 0 0 0 0 0 0 127 0"
         id="feColorMatrix1" />
      <feOffset
         dy="5"
         id="feOffset1" />
      <feComposite
         in2="hardAlpha"
         operator="out"
         id="feComposite1" />
      <feColorMatrix
         type="matrix"
         values="0 0 0 0 0 0 0 0 0 0 0 0 0 0 0 0 0 0 0.25 0"
         id="feColorMatrix2" />
      <feBlend
         in2="BackgroundImageFix"
         mode="normal"
         result="effect1_dropShadow_3_2"
         id="feBlend2" />
      <feBlend
         in="SourceGraphic"
         in2="effect1_dropShadow_3_2"
         mode="normal"
         result="shape"
         id="feBlend3" />
    </filter>
    <linearGradient
       id="paint0_linear_3_2"
       x1="450"
       x2="450"
       y1="0"
       y2="1105"
       gradientUnits="userSpaceOnUse">
      <stop
         stop-color="#2A3B4B"
         id="stop3" />
      <stop
         offset="1"
         stop-color="#2BFAAC"
         id="stop4" />
      <stop
         offset="1"
         stop-color="#2BFAAC"
         id="stop5" />
    </linearGradient>
    <filter
       style="color-interpolation-filters:sRGB;"
       inkscape:label="Drop Shadow"
       id="filter28"
       x="0"
       y="0"
       width="1"
       height="1.0154963">
      <feFlood
         result="flood"
         in="SourceGraphic"
         flood-opacity="1.000000"
         flood-color="rgb(31,73,70)"
         id="feFlood27" />
      <feGaussianBlur
         result="blur"
         in="SourceGraphic"
         stdDeviation="0.000000"
         id="feGaussianBlur27" />
      <feOffset
         result="offset"
         in="blur"
         dx="0.000000"
         dy="3.500000"
         id="feOffset27" />
      <feComposite
         result="comp1"
         operator="in"
         in="flood"
         in2="offset"
         id="feComposite27" />
      <feComposite
         result="comp2"
         operator="over"
         in="SourceGraphic"
         in2="comp1"
         id="feComposite28" />
    </filter>
  </defs>
  <g
     id="g12"
     style="fill:#ccffed;fill-opacity:1;filter:url(#filter28)">
    <path
       style="fill:#ccffed;fill-opacity:1"
       id="path5"
       d="m 231.86671,77.343111 c -11.82824,-4.248293 -24.19958,-6.695012 -36.52206,-8.999707 -15.12649,-2.777958 -30.39388,-3.657699 -45.68284,-1.754877 -2.69263,0.335117 -5.35732,0.865595 -8.03598,1.298392 -7.72338,1.632663 -15.62139,3.969607 -21.26036,9.841256 -3.05439,3.18042 -3.37361,4.522074 -5.35319,8.410335 -3.19145,8.93139 -3.01245,18.44248 -1.12662,27.63954 0.37398,1.82391 0.88516,3.61697 1.32774,5.42546 2.09621,7.0487 5.66464,13.47442 10.88763,18.69252 3.72799,3.72451 5.63228,4.80453 9.95903,7.89442 1.95991,1.16094 3.88711,2.37896 5.87973,3.48282 5.94912,3.29569 11.86332,6.66418 17.94215,9.71402 2.16552,1.08647 4.47401,1.86698 6.75704,2.67792 6.69567,2.37834 13.3402,3.77958 20.30435,5.04614 11.20389,1.6823 22.5422,2.06356 33.81678,3.04473 6.63465,0.54394 13.22095,1.6024 19.54802,3.71634 4.01338,1.3409 5.58255,2.12625 9.48798,3.82288 1.5101,0.80849 6.02343,3.26492 4.53031,2.42547 -2.59872,-1.46104 -5.01585,-3.35797 -7.84754,-4.29046 -1.46921,-0.48381 2.49367,1.8426 3.62322,2.89937 2.5543,2.38973 4.59366,4.98384 6.02927,8.21721 0.82834,1.86564 1.24212,3.88897 1.86319,5.83346 0.2638,2.33389 0.75137,4.65326 0.79141,7.00167 0.17492,10.2598 -3.4284,22.22746 -9.04586,30.804 -1.5029,2.29457 -3.41106,4.29649 -5.11658,6.44473 -2.11462,1.91271 -4.09644,3.98336 -6.34385,5.73812 -6.71462,5.24275 -15.20554,9.86996 -23.70161,11.23514 -10.28378,1.65243 -15.94747,0.36773 -26.57393,-0.59892 -19.30164,-3.06778 -38.44339,-7.65237 -56.77254,-14.5022 -2.76473,-1.03322 -5.45661,-2.25178 -8.18492,-3.37768 0,0 10.27932,8.07722 10.27932,8.07722 v 0 c 2.56766,0.97021 5.10755,2.01735 7.70297,2.91062 18.25188,6.28176 37.17757,10.46509 56.17829,13.71797 10.97324,1.16609 17.26737,2.65279 27.96921,1.02999 8.75587,-1.32772 17.3206,-6.21914 24.18963,-11.62075 2.30134,-1.80971 4.34745,-3.92229 6.52118,-5.88344 1.75511,-2.21293 3.72125,-4.27378 5.26534,-6.63879 5.58746,-8.55808 9.40909,-21.14142 9.64357,-31.35156 0.0548,-2.38514 -0.32026,-4.76078 -0.48039,-7.14117 -1.34716,-5.11936 -1.27019,-6.60492 -4.13459,-10.97842 -1.347,-2.05666 -4.59722,-5.41993 -6.68797,-6.75825 -11.03373,-7.06287 -12.25144,-7.55876 -20.57303,-11.78673 -4.00071,-1.68104 -5.54393,-2.44168 -9.6563,-3.73435 -6.38368,-2.00662 -13.02231,-2.9196 -19.67274,-3.4686 -11.15174,-0.88374 -22.36313,-1.24599 -33.43568,-2.93195 -6.88788,-1.30382 -13.42642,-2.73293 -20.02897,-5.17445 -2.27546,-0.84143 -4.51906,-3.77261 -6.72938,-2.77252 -1.88657,0.8536 7.16959,3.0978 5.13697,3.49302 -2.20904,0.42954 -3.90673,-2.23494 -5.8601,-3.35241 -1.77016,-1.21974 -3.60072,-2.35618 -5.3105,-3.65921 -7.41478,-5.65084 -12.91161,-13.01606 -15.71321,-21.94591 -0.46962,-1.78252 -1.01071,-3.54772 -1.40885,-5.34755 -1.96503,-8.88307 -2.2082,-18.1052 0.87968,-26.761972 1.88714,-3.69217 2.17247,-4.923465 5.07109,-7.944254 5.37143,-5.59782 12.88975,-7.950173 20.23261,-9.63598 2.61108,-0.441433 5.20655,-0.988071 7.83325,-1.324298 15.13169,-1.936903 30.40144,-0.763706 45.35801,1.967273 12.85196,2.544259 25.84671,5.248092 37.91337,10.502963 z" />
    <path
       style="fill:#ccffed;fill-opacity:1"
       id="path6"
       d="m 304.55657,75.828455 c 0.35835,1.838764 0.7996,3.663298 1.07506,5.516294 1.4429,9.706445 2.00076,17.242389 2.72052,27.326171 0.94357,13.21925 1.71442,27.22943 2.153,40.46403 0.21536,6.49865 0.2803,13.00141 0.42044,19.50212 0.16776,13.80841 -0.15356,27.61847 -0.90276,41.40634 -0.32332,5.95026 -0.76594,11.81627 -1.66452,17.70278 -0.21575,0.80376 -0.32397,1.64444 -0.64726,2.4113 -0.11639,0.27607 -0.42449,0.42292 -0.63674,0.63438 4.1856,1.8739 7.99514,5.15053 12.5568,5.62168 1.4333,0.14804 -0.24916,-2.90702 0.0191,-4.32276 1.21653,-6.41952 3.7787,-10.82056 6.53642,-16.8157 5.28683,-9.43708 11.06117,-18.86203 18.72236,-26.60907 3.67029,-3.71142 7.56143,-6.77425 12.4819,-8.60956 1.79153,-0.66823 3.74104,-0.7931 5.61156,-1.18965 1.58576,0.27684 5.98946,1.86636 4.75728,0.8305 -2.41146,-2.02724 -5.41521,-4.30375 -8.55289,-4.02136 -1.70658,0.15359 1.84873,2.93722 2.33146,4.58129 2.13339,7.26584 0.45898,15.58425 -0.54871,22.8513 -1.89852,9.86817 -4.38784,19.69207 -8.7222,28.79023 0,0 12.45361,6.98136 12.45361,6.98136 v 0 c 3.52392,-9.62315 5.88932,-19.61118 7.82489,-29.66597 1.1775,-7.36458 3.04166,-15.69827 1.5779,-23.17834 -1.97908,-10.11351 -12.75965,-15.16976 -22.43068,-14.96504 -1.86104,0.54751 -3.81765,0.83857 -5.58311,1.64255 -4.87133,2.21836 -8.50646,5.47753 -12.10312,9.40849 -7.40339,8.0915 -13.10901,17.59889 -18.78892,26.91032 -3.4159,6.3666 -5.72153,9.92714 -7.98314,16.53953 -0.52696,1.5407 -2.25062,3.60584 -1.10122,4.75922 3.73901,3.75197 8.95771,5.71427 13.76187,7.9453 1.24033,0.576 0.0133,-6.00692 0.99558,-3.98005 0.35971,-6.1946 0.3309,-12.3502 0.26498,-18.55688 -0.15011,-14.13307 -0.41093,-28.26579 -0.92155,-42.39094 -0.65326,-19.86567 -1.41749,-39.7291 -1.80277,-59.60248 -0.19387,-9.99997 -0.15534,-16.679647 -0.39769,-26.267962 -0.0431,-1.707129 -0.13768,-3.412573 -0.20653,-5.118859 z" />
    <path
       style="fill:#ccffed;fill-opacity:1"
       id="path7"
       d="m 425.81165,208.45298 c 4.72525,2.29753 11.28386,5.0179 16.55057,4.86542 1.7733,-0.0513 3.50143,-0.57354 5.25214,-0.86031 5.6026,-2.19208 10.49663,-5.73339 14.57651,-10.14267 1.63953,-1.7719 4.35459,-5.14453 4.7832,-7.77933 0.19548,-1.20167 -0.30966,-2.41515 -0.46449,-3.62272 -5.51378,-3.24429 -10.53538,-7.52929 -16.54133,-9.73285 -4.39548,-1.61268 -18.21435,2.96568 -20.80247,4.02383 -9.85466,4.02907 -18.89266,9.71179 -26.81615,16.82988 -3.92552,3.52649 -7.174,7.74061 -10.761,11.61092 -2.54566,4.02075 -5.48354,7.81848 -7.63699,12.06224 -5.29804,10.44076 -8.68322,25.54817 -2.72234,36.50971 1.00298,1.8444 2.58818,3.30642 3.88226,4.95963 8.34462,5.27383 11.2315,7.43822 23.23315,11.46388 2.08771,0.70027 4.40854,0.26386 6.60516,0.10963 3.78499,-0.26576 10.01035,-1.59903 13.55816,-2.9119 2.17572,-0.80512 4.19759,-1.97687 6.29639,-2.96531 1.87127,-1.34436 3.74254,-2.68872 5.61381,-4.03308 0,0 -11.38362,-7.24183 -11.38362,-7.24183 v 0 c -1.822,1.27742 -3.64401,2.55484 -5.46602,3.83227 -2.0499,0.92799 -4.02629,2.03941 -6.14969,2.78399 -3.7056,1.29939 -9.47114,2.39306 -13.40508,2.53026 -2.1562,0.0752 -6.05252,-2.47751 -6.46254,-0.35932 -0.47437,2.45065 5.44969,2.52109 5.56138,5.01473 0.0924,2.06185 -3.64464,-1.93792 -5.46696,-2.90688 -1.4054,-1.54637 -3.08957,-2.87925 -4.21619,-4.63912 -6.69335,-10.45557 -4.26028,-25.68688 0.66279,-36.25407 1.97762,-4.24489 4.80334,-8.04041 7.20501,-12.06062 3.50514,-3.83619 6.62975,-8.05837 10.51542,-11.50858 7.97554,-7.08173 17.19942,-12.5167 27.28531,-15.98294 4.08456,-1.40375 8.36283,-2.32294 12.65966,-2.76047 3.00636,-0.30612 7.9151,3.35105 9.04903,0.54995 1.10564,-2.73122 -4.79337,-3.42809 -7.19005,-5.14214 0.33066,0.97835 1.03947,1.90342 0.99199,2.93505 -0.11471,2.49221 -2.69513,5.84282 -4.13631,7.45714 -3.87609,4.34173 -8.61638,7.61469 -14.17992,9.36604 -1.70801,0.16205 -3.4091,0.53677 -5.12403,0.48617 -5.65852,-0.16697 -12.07397,-3.20373 -17.01466,-5.86107 z" />
    <path
       style="fill:#ccffed;fill-opacity:1"
       id="path8"
       d="m 525.65092,99.443956 c 0.0391,3.508564 0.25854,7.019744 0.11723,10.525674 -0.58173,14.43213 -2.11604,26.34671 -4.27868,40.85847 -3.59658,24.1338 -8.47127,48.03463 -13.31771,71.93859 -2.92378,13.65239 -5.63615,27.35472 -8.92291,40.92706 -0.37406,1.54466 -2.29184,3.44937 -1.20849,4.61223 3.43413,3.68619 8.58471,5.2752 12.87706,7.9128 0,0 -11.90002,-9.02085 -11.90002,-9.02085 v 0 c 3.78692,2.53348 6.90702,6.63944 11.36075,7.60042 1.67224,0.36082 -0.0854,-3.42895 0.0815,-5.13152 0.33317,-3.39916 0.92624,-6.76788 1.41613,-10.14801 2.12655,-14.6728 2.45963,-16.36677 4.97059,-32.1289 3.70189,-21.73827 4.03012,-24.15244 8.22605,-46.65056 4.64331,-24.89697 10.11185,-49.68328 13.26465,-74.83148 z" />
    <path
       style="fill:#ccffed;fill-opacity:1"
       id="path9"
       d="m 587.27722,99.773299 c 0.445,1.967531 1.00553,3.912451 1.33501,5.902591 5.06893,30.61733 2.31551,61.85953 -0.0617,92.58004 -1.56177,15.91517 -3.23223,31.82505 -5.27965,47.68635 -0.46464,3.59953 -1.31664,12.26839 -3.06943,16.2743 -0.45443,1.03858 -1.47785,1.71946 -2.21677,2.57919 -0.72047,-0.19968 -1.44094,-0.39937 -2.1614,-0.59905 0,0 11.78185,8.51951 11.78185,8.51951 v 0 c 0.8907,-0.236 1.78139,-0.472 2.67209,-0.708 0.61009,-1.13904 1.48346,-2.1724 1.83027,-3.41713 1.06837,-3.83451 1.56234,-14.06618 1.779,-17.11227 1.15282,-16.20776 2.30821,-32.41519 3.54087,-48.6172 2.26234,-32.17647 5.31925,-64.51521 3.10283,-96.78036 z" />
    <path
       style="fill:#ccffed;fill-opacity:1"
       id="path10"
       d="m 560.53925,202.7002 c 15.21599,1.71664 30.48512,2.97888 45.73945,4.31919 1.74388,0.14939 3.48777,0.29878 5.23165,0.44817 0,0 -11.18665,-8.2451 -11.18665,-8.2451 v 0 c -1.64938,-0.0832 -3.29877,-0.16629 -4.94816,-0.24944 -15.57487,-0.94685 -31.26478,-1.90705 -46.55354,-5.17422 z" />
    <path
       style="fill:#ccffed;fill-opacity:1"
       id="path11"
       d="m 645.51114,233.91744 c 11.14563,3.81269 23.27769,4.85811 34.74784,1.70963 2.69671,-0.74023 5.23853,-1.95922 7.8578,-2.93883 2.32265,-1.4377 4.79954,-2.65186 6.96795,-4.31309 3.51866,-2.69566 7.702,-7.27053 10.05316,-11.09382 1.86494,-3.03264 3.73503,-7.00644 2.73942,-10.7665 -0.42985,-1.62337 -1.78914,-2.84241 -2.68371,-4.26361 -5.87433,-2.85084 -11.32998,-6.81094 -17.62299,-8.55251 -2.56331,-0.70939 -5.31819,0.64815 -7.83537,1.50699 -9.60401,3.27681 -17.36131,10.10628 -21.31491,19.54197 -1.44175,3.44089 -1.89833,7.21595 -2.84749,10.82392 -0.14435,3.69345 -0.63871,7.3898 -0.43304,11.08034 0.52823,9.47867 3.54901,18.98137 10.20075,25.97621 5.62399,5.91407 18.57187,11.4454 23.77939,14.21675 5.61099,1.55341 11.16412,2.33487 16.85368,0.64273 6.86514,-2.04178 11.75537,-6.08528 17.2374,-10.42726 1.70473,-1.51881 3.40945,-3.03762 5.11418,-4.55642 0,0 -11.46824,-7.11017 -11.46824,-7.11017 v 0 c -1.65694,1.50972 -3.31388,3.01944 -4.97082,4.52916 -1.90312,1.44405 -3.71071,3.02351 -5.70937,4.33214 -3.3657,2.2037 -7.54716,4.30715 -11.50002,5.29156 -5.45896,1.35948 -10.81849,0.53227 -16.11,-1.06668 1.71197,1.27475 6.99007,4.88161 5.13592,3.82426 -2.25947,-1.28849 -4.47676,-2.7271 -6.35933,-4.52193 -6.9592,-6.63485 -10.37932,-15.98299 -11.09019,-25.42131 -0.27132,-3.60233 0.19598,-7.2224 0.29396,-10.8336 0.93425,-3.47621 1.38121,-7.12165 2.80274,-10.42862 2.75695,-6.41357 6.86791,-11.10663 12.79532,-14.73293 2.59132,-1.58533 5.45947,-2.76514 8.39513,-3.54622 2.54868,-0.67812 7.11353,1.74328 7.87329,-0.78227 0.77251,-2.56793 -4.02604,-3.54331 -6.03905,-5.31497 1.03185,1.1638 2.50669,2.05183 3.09557,3.49141 1.39546,3.41132 -0.26012,7.36126 -1.88834,10.21338 -2.18229,3.82269 -6.11365,8.16338 -9.57584,10.79528 -2.1068,1.60156 -4.52292,2.74909 -6.78438,4.12364 -2.55431,0.92842 -5.03264,2.10114 -7.66294,2.78528 -11.8369,3.07877 -24.40766,1.44557 -35.50505,-3.39202 z" />
    <path
       style="fill:#ccffed;fill-opacity:1"
       id="path12"
       d="m 744.25684,231.70604 c 2.49153,12.89595 3.43738,25.99617 3.87146,39.10085 0.0259,1.82025 0.18355,7.2268 -0.0433,9.39557 -0.0478,0.45671 -0.85607,1.13267 -0.43174,1.3082 4.18762,1.73228 8.64884,5.08278 13.02372,3.90068 2.42822,-0.6561 0.13337,-5.03545 0.42308,-7.534 0.4745,-4.09219 1.24473,-8.14465 1.86709,-12.21698 3.22655,-18.42089 8.19111,-36.47111 14.63778,-54.02102 3.75893,-10.233 8.55692,-21.66854 13.84145,-31.30166 2.10179,-3.83133 4.62788,-7.41412 6.94181,-11.12119 2.28446,-2.7824 4.39311,-5.71897 6.85337,-8.34721 5.441,-5.81251 13.2223,-11.75229 21.06371,-13.9165 0.98431,-0.27167 2.01398,-0.33844 3.02097,-0.50765 0.77303,0.0378 1.54606,0.0756 2.31909,0.11338 0,0 -11.79921,-8.53031 -11.79921,-8.53031 v 0 c -0.78132,0.0744 -1.56264,0.14872 -2.34395,0.22307 -0.98213,0.28226 -1.9933,0.47817 -2.94639,0.84678 -7.61766,2.94619 -14.9148,9.20655 -20.07311,15.36088 -2.33049,2.78047 -4.30284,5.84247 -6.45426,8.76371 -2.14108,3.84895 -4.47355,7.5975 -6.42323,11.54685 -4.94141,10.00951 -9.27587,21.44802 -13.04438,31.88177 -6.31282,17.47808 -11.84122,35.22795 -16.34561,53.26056 -0.97608,3.91854 -2.01563,7.8218 -2.92823,11.7556 -0.54997,2.37066 -2.83068,5.14379 -1.45851,7.15367 14.43397,21.14205 13.06718,10.91782 12.6977,3.62928 -0.0941,-1.85651 -0.21917,-3.71132 -0.32875,-5.56698 -0.80618,-12.80315 -1.8946,-25.58667 -2.62576,-38.3931 z" />
  </g>
</svg>
